<?xml version="1.0" standalone="no"?>
<!DOCTYPE svg PUBLIC "-//W3C//DTD SVG 1.1//EN" "http://www.w3.org/Graphics/SVG/1.1/DTD/svg11.dtd">
<svg xmlns="http://www.w3.org/2000/svg">
<metadata>Copyright (C) 2019 by original authors @ fontello.com</metadata>
<defs>
<font id="ma2" horiz-adv-x="1000" >
<font-face font-family="ma2" font-weight="400" font-stretch="normal" units-per-em="1000" ascent="850" descent="-150" />
<missing-glyph horiz-adv-x="1000" />
<glyph glyph-name="error" unicode="&#xe800;" d="M541 288v250h-82v-250h82z m0-168v84h-82v-84h82z m-41 625c231 0 416-185 416-416s-185-416-416-416-416 186-416 416 186 416 416 416z" horiz-adv-x="1000" />

<glyph glyph-name="error_outline" unicode="&#xe801;" d="M500-5c184 0 334 151 334 334s-150 334-334 334-334-150-334-334 150-334 334-334z m0 750c231 0 416-185 416-416s-185-416-416-416-416 186-416 416 186 416 416 416z m-41-207h82v-250h-82v250z m0-334h82v-84h-82v84z" horiz-adv-x="1000" />

<glyph glyph-name="warning2" unicode="&#xe802;" d="M541 245v168h-82v-168h82z m0-166v84h-82v-84h82z m-500-125l459 791 459-791h-918z" horiz-adv-x="1000" />

<glyph glyph-name="add_alert" unicode="&#xe803;" d="M666 286v84h-125v125h-82v-125h-125v-84h125v-125h82v125h125z m121-158l88-88v-45h-750v45l88 88v242c0 135 94 250 221 280v29c0 37 29 66 66 66s66-29 66-66v-29c127-30 221-145 221-280v-242z m-369-174h164c0-45-37-84-82-84s-82 39-82 84z" horiz-adv-x="1000" />

<glyph glyph-name="album" unicode="&#xe804;" d="M500 370c23 0 41-17 41-41s-18-41-41-41-41 18-41 41 18 41 41 41z m0-228c104 0 188 84 188 187s-84 188-188 188-187-84-187-188 84-187 187-187z m0 603c231 0 416-185 416-416s-185-416-416-416-416 186-416 416 186 416 416 416z" horiz-adv-x="1000" />

<glyph glyph-name="av_timer" unicode="&#xe805;" d="M250 329c0 24 18 41 41 41s43-17 43-41-19-41-43-41-41 18-41 41z m500 0c0-23-18-41-41-41s-43 18-43 41 20 41 43 41 41-17 41-41z m-291 375h41c207 0 375-168 375-375s-168-375-375-375-375 168-375 375c0 123 59 231 150 299v2l284-283-59-59-227 225c-41-51-64-113-64-184 0-162 129-291 291-291s291 129 291 291c0 147-109 270-250 289v-80h-82v166z m0-584c0 24 18 43 41 43s41-19 41-43-18-41-41-41-41 18-41 41z" horiz-adv-x="1000" />

<glyph glyph-name="closed_caption" unicode="&#xe806;" d="M750 370v43c0 24-18 41-41 41h-125c-23 0-43-17-43-41v-168c0-23 20-41 43-41h125c23 0 41 18 41 41v43h-62v-21h-84v125h84v-22h62z m-291 0v43c0 24-19 41-43 41h-125c-23 0-41-17-41-41v-168c0-23 18-41 41-41h125c24 0 43 18 43 41v43h-62v-21h-84v125h84v-22h62z m332 293c45 0 84-39 84-84v-500c0-45-39-84-84-84h-582c-47 0-84 39-84 84v500c0 45 37 84 84 84h582z" horiz-adv-x="1000" />

<glyph glyph-name="equalizer1" unicode="&#xe807;" d="M666 454h168v-459h-168v459z m-500-459v334h168v-334h-168z m250 0v668h168v-668h-168z" horiz-adv-x="1000" />

<glyph glyph-name="explicit" unicode="&#xe808;" d="M625 454v84h-250v-418h250v84h-166v84h166v82h-166v84h166z m166 250c45 0 84-39 84-84v-582c0-45-39-84-84-84h-582c-45 0-84 39-84 84v582c0 45 39 84 84 84h582z" horiz-adv-x="1000" />

<glyph glyph-name="fast_forward" unicode="&#xe809;" d="M541 579l356-250-356-250v500z m-375-500v500l356-250z" horiz-adv-x="1000" />

<glyph glyph-name="fast_rewind" unicode="&#xe80a;" d="M479 329l355 250v-500z m-20-250l-355 250 355 250v-500z" horiz-adv-x="1000" />

<glyph glyph-name="games" unicode="&#xe80b;" d="M688 454h228v-250h-228l-125 125z m-313-312l125 125 125-125v-229h-250v229z m-62 312l125-125-125-125h-229v250h229z m312 63l-125-125-125 125v228h250v-228z" horiz-adv-x="1000" />

<glyph glyph-name="hearing" unicode="&#xe80c;" d="M479 454c0 57 48 104 105 104s104-47 104-104-47-103-104-103-105 47-105 103z m-161 266c-68-69-109-162-109-266s41-197 109-265l-58-59c-82 82-135 197-135 324s53 242 135 324z m391-725c45 0 82 39 82 84h84c0-92-74-166-166-166-23 0-47 4-68 14-57 29-90 72-116 148-13 41-37 61-70 86-37 28-82 63-119 131-29 53-45 109-45 162 0 164 129 291 293 291s291-127 291-291h-84c0 117-90 209-207 209s-209-92-209-209c0-39 12-84 33-123 30-55 65-80 98-105 39-30 78-61 100-125 21-63 41-82 70-98 8-4 21-8 33-8z" horiz-adv-x="1000" />

<glyph glyph-name="high_quality" unicode="&#xe80d;" d="M604 267v125h84v-125h-84z m146-22v168c0 24-18 41-41 41h-125c-23 0-43-17-43-41v-168c0-23 20-41 43-41h31v-62h63v62h31c23 0 41 18 41 41z m-291-41v250h-62v-103h-84v103h-63v-250h63v84h84v-84h62z m332 459c45 0 84-39 84-84v-500c0-45-39-84-84-84h-582c-47 0-84 39-84 84v500c0 45 37 84 84 84h582z" horiz-adv-x="1000" />

<glyph glyph-name="mic1" unicode="&#xe80e;" d="M721 370h70c0-142-113-260-250-279v-137h-82v137c-137 19-250 137-250 279h70c0-125 106-211 221-211s221 86 221 211z m-221-125c-68 0-125 57-125 125v250c0 69 57 125 125 125s125-56 125-125v-250c0-68-57-125-125-125z" horiz-adv-x="1000" />

<glyph glyph-name="mic_none" unicode="&#xe80f;" d="M721 370h70c0-142-113-260-250-279v-137h-82v137c-137 19-250 137-250 279h70c0-125 106-211 221-211s221 86 221 211z m-272 254v-258c0-27 24-49 51-49s49 22 49 49l2 258c0 27-24 51-51 51s-51-24-51-51z m51-379c-68 0-125 57-125 125v250c0 69 57 125 125 125s125-56 125-125v-250c0-68-57-125-125-125z" horiz-adv-x="1000" />

<glyph glyph-name="mic_off" unicode="&#xe810;" d="M178 704l697-697-53-53-174 174c-31-19-70-31-107-37v-137h-82v137c-137 19-250 137-250 279h70c0-125 106-211 221-211 33 0 66 8 96 22l-69 68c-7-2-17-4-27-4-68 0-125 57-125 125v31l-250 250z m447-340l-250 248v8c0 69 57 125 125 125s125-56 125-125v-256z m166 6c0-49-14-95-37-136l-51 52c12 26 18 53 18 84h70z" horiz-adv-x="1000" />

<glyph glyph-name="library_books" unicode="&#xe811;" d="M791 538v82h-416v-82h416z m-166-334v84h-250v-84h250z m166 166v84h-416v-84h416z m43 375c45 0 82-37 82-82v-500c0-45-37-84-82-84h-500c-45 0-84 39-84 84v500c0 45 39 82 84 82h500z m-668-166v-584h584v-82h-584c-45 0-82 37-82 82v584h82z" horiz-adv-x="1000" />

<glyph glyph-name="library_music" unicode="&#xe812;" d="M166 579v-584h584v-82h-584c-45 0-82 37-82 82v584h82z m584-41v82h-166v-228c-18 13-39 21-62 21-57 0-106-49-106-105s49-104 106-104 103 47 103 104v230h125z m84 207c45 0 82-37 82-82v-500c0-45-37-84-82-84h-500c-45 0-84 39-84 84v500c0 45 39 82 84 82h500z" horiz-adv-x="1000" />

<glyph glyph-name="new_releases" unicode="&#xe813;" d="M541 288v250h-82v-250h82z m0-168v84h-82v-84h82z m418 209l-102-115 14-154-150-34-78-132-143 60-143-60-78 131-150 35 14 154-102 115 102 117-14 153 150 33 78 133 143-61 143 61 78-133 150-33-14-155z" horiz-adv-x="1000" />

<glyph glyph-name="not_interested" unicode="&#xe814;" d="M764 124c45 57 70 129 70 205 0 184-150 334-334 334-76 0-148-25-205-70z m-264-129c76 0 148 26 205 71l-469 468c-45-56-70-129-70-205 0-183 150-334 334-334z m0 750c231 0 416-185 416-416s-185-416-416-416-416 186-416 416 186 416 416 416z" horiz-adv-x="1000" />

<glyph glyph-name="pause3" unicode="&#xe815;" d="M584 620h166v-582h-166v582z m-334-582v582h166v-582h-166z" horiz-adv-x="1000" />

<glyph glyph-name="pause_circle_filled" unicode="&#xe816;" d="M625 163v332h-84v-332h84z m-166 0v332h-84v-332h84z m41 582c231 0 416-185 416-416s-185-416-416-416-416 186-416 416 186 416 416 416z" horiz-adv-x="1000" />

<glyph glyph-name="pause_circle_outline" unicode="&#xe817;" d="M541 163v332h84v-332h-84z m-41-168c184 0 334 151 334 334s-150 334-334 334-334-150-334-334 150-334 334-334z m0 750c231 0 416-185 416-416s-185-416-416-416-416 186-416 416 186 416 416 416z m-125-582v332h84v-332h-84z" horiz-adv-x="1000" />

<glyph glyph-name="play_arrow" unicode="&#xe818;" d="M334 620l457-291-457-291v582z" horiz-adv-x="1000" />

<glyph glyph-name="play_circle_filled" unicode="&#xe819;" d="M416 142l250 187-250 188v-375z m84 603c231 0 416-185 416-416s-185-416-416-416-416 186-416 416 186 416 416 416z" horiz-adv-x="1000" />

<glyph glyph-name="play_circle_outline" unicode="&#xe81a;" d="M500-5c184 0 334 151 334 334s-150 334-334 334-334-150-334-334 150-334 334-334z m0 750c231 0 416-185 416-416s-185-416-416-416-416 186-416 416 186 416 416 416z m-84-603v375l250-188z" horiz-adv-x="1000" />

<glyph glyph-name="playlist_add" unicode="&#xe81b;" d="M84 163v82h332v-82h-332z m666 82h166v-82h-166v-168h-84v168h-166v82h166v168h84v-168z m-166 334v-84h-500v84h500z m0-166v-84h-500v84h500z" horiz-adv-x="1000" />

<glyph glyph-name="queue" unicode="&#xe81c;" d="M791 370v84h-166v166h-84v-166h-166v-84h166v-166h84v166h166z m43 375c45 0 82-37 82-82v-500c0-45-37-84-82-84h-500c-45 0-84 39-84 84v500c0 45 39 82 84 82h500z m-668-166v-584h584v-82h-584c-45 0-82 37-82 82v584h82z" horiz-adv-x="1000" />

<glyph glyph-name="queue_music" unicode="&#xe81d;" d="M709 579h207v-84h-125v-375c0-68-57-125-125-125s-125 57-125 125 57 125 125 125c14 0 29-4 43-8v342z m-584-416v82h334v-82h-334z m500 250v-84h-500v84h500z m0 166v-84h-500v84h500z" horiz-adv-x="1000" />

<glyph glyph-name="radio" unicode="&#xe81e;" d="M834 329v166h-668v-166h500v84h84v-84h84z m-543-334c68 0 125 57 125 125s-57 125-125 125-125-56-125-125 57-125 125-125z m-156 578l527 215 28-70-344-139h488c47 0 82-37 82-84v-500c0-45-35-82-82-82h-668c-47 0-82 37-82 82v500c0 35 20 67 51 78z" horiz-adv-x="1000" />

<glyph glyph-name="recent_actors" unicode="&#xe81f;" d="M522 120v31c0 63-125 94-188 94s-187-31-187-94v-31h375z m-188 387c-51 0-94-43-94-94s43-94 94-94 94 43 94 94-43 94-94 94z m250 113c23 0 41-17 41-41v-500c0-23-18-41-41-41h-500c-23 0-43 18-43 41v500c0 24 20 41 43 41h500z m125-582v582h82v-582h-82z m166 582h84v-582h-84v582z" horiz-adv-x="1000" />

<glyph glyph-name="repeat1" unicode="&#xe820;" d="M709 120v168h82v-250h-500v-125l-166 166 166 166v-125h418z m-418 418v-168h-82v250h500v125l166-166-166-166v125h-418z" horiz-adv-x="1000" />

<glyph glyph-name="repeat_one" unicode="&#xe821;" d="M541 204h-62v166h-63v43l84 41h41v-250z m168-84v168h82v-250h-500v-125l-166 166 166 166v-125h418z m-418 418v-168h-82v250h500v125l166-166-166-166v125h-418z" horiz-adv-x="1000" />

<glyph glyph-name="replay" unicode="&#xe822;" d="M500 620c184 0 334-148 334-332s-150-334-334-334-334 151-334 334h84c0-138 111-250 250-250s250 112 250 250-111 250-250 250v-168l-209 209 209 209v-168z" horiz-adv-x="1000" />

<glyph glyph-name="shuffle" unicode="&#xe823;" d="M617 271l131-131 86 86v-231h-230l86 86-131 131z m-13 392h230v-230l-86 86-523-524-59 59 524 523z m-163-217l-58-58-217 217 59 58z" horiz-adv-x="1000" />

<glyph glyph-name="skip_next" unicode="&#xe824;" d="M666 579h84v-500h-84v500z m-416-500v500l354-250z" horiz-adv-x="1000" />

<glyph glyph-name="skip_previous" unicode="&#xe825;" d="M397 329l353 250v-500z m-147 250h84v-500h-84v500z" horiz-adv-x="1000" />

<glyph glyph-name="snooze" unicode="&#xe826;" d="M375 370v84h250v-74l-150-176h150v-84h-250v76l150 174h-150z m125-375c162 0 291 131 291 293s-129 291-291 291-291-129-291-291 129-293 291-293z m0 668c207 0 375-168 375-375s-168-375-375-375-375 168-375 375 168 375 375 375z m416-72l-53-65-191 163 53 62z m-588 98l-191-161-53 63 191 160z" horiz-adv-x="1000" />

<glyph glyph-name="stop3" unicode="&#xe827;" d="M250 579h500v-500h-500v500z" horiz-adv-x="1000" />

<glyph glyph-name="subtitles" unicode="&#xe828;" d="M834 245v84h-418v-84h418z m0-166v84h-168v-84h168z m-250 0v84h-418v-84h418z m-418 250v-84h168v84h-168z m668 334c45 0 82-39 82-84v-500c0-45-37-84-82-84h-668c-45 0-82 39-82 84v500c0 45 37 84 82 84h668z" horiz-adv-x="1000" />

<glyph glyph-name="surround_sound" unicode="&#xe829;" d="M500 413c45 0 84-39 84-84s-39-84-84-84-84 39-84 84 39 84 84 84z m236-320c65 64 98 150 98 236s-33 172-98 237l-60-61c49-49 74-111 74-176s-23-129-72-178z m-236 70c92 0 166 74 166 166s-74 166-166 166-166-74-166-166 74-166 166-166z m-176-10c-49 49-74 112-74 176s23 129 72 178l-58 59c-65-65-98-151-98-237s33-172 98-236z m510 510c45 0 82-39 82-84v-500c0-45-37-84-82-84h-668c-45 0-82 39-82 84v500c0 45 37 84 82 84h668z" horiz-adv-x="1000" />

<glyph glyph-name="video_library" unicode="&#xe82a;" d="M500 226l250 187-250 188v-375z m334 519c45 0 82-37 82-82v-500c0-45-37-84-82-84h-500c-45 0-84 39-84 84v500c0 45 39 82 84 82h500z m-668-166v-584h584v-82h-584c-45 0-82 37-82 82v584h82z" horiz-adv-x="1000" />

<glyph glyph-name="videocam" unicode="&#xe82b;" d="M709 392l166 166v-457l-166 166v-147c0-23-19-41-43-41h-500c-23 0-41 18-41 41v418c0 24 18 41 41 41h500c24 0 43-17 43-41v-146z" horiz-adv-x="1000" />

<glyph glyph-name="videocam_off" unicode="&#xe82c;" d="M137 745l738-738-53-53-132 133c-6-4-16-8-24-8h-500c-23 0-41 18-41 41v418c0 24 18 41 41 41h31l-113 113z m738-187v-446l-467 467h258c24 0 43-17 43-41v-146z" horiz-adv-x="1000" />

<glyph glyph-name="volume_down" unicode="&#xe82d;" d="M209 454h166l209 209v-668l-209 209h-166v250z m563-125c0-74-43-137-106-168v336c63-31 106-94 106-168z" horiz-adv-x="1000" />

<glyph glyph-name="volume_mute" unicode="&#xe82e;" d="M291 454h168l207 209v-668l-207 209h-168v250z" horiz-adv-x="1000" />

<glyph glyph-name="volume_off" unicode="&#xe82f;" d="M500 663v-176l-88 88z m-322 41l697-697-53-53-86 86c-45-35-95-62-152-76v86c35 10 66 27 94 49l-178 177v-281l-209 209h-166v250h197l-197 197z m613-375c0 133-86 244-207 280v85c168-37 291-187 291-365 0-62-16-123-43-174l-62 65c13 33 21 70 21 109z m-103 0c0-10 0-17-2-25l-102 101v92c63-31 104-94 104-168z" horiz-adv-x="1000" />

<glyph glyph-name="volume_up" unicode="&#xe830;" d="M584 694c168-37 291-187 291-365s-123-328-291-365v86c121 35 207 146 207 279s-86 244-207 280v85z m104-365c0-74-41-137-104-168v336c63-31 104-94 104-168z m-563 125h166l209 209v-668l-209 209h-166v250z" horiz-adv-x="1000" />

<glyph glyph-name="web" unicode="&#xe831;" d="M834 79v375h-168v-375h168z m-209 209v166h-459v-166h459z m0-209v166h-459v-166h459z m209 584c45 0 82-39 82-84v-500c0-45-37-84-82-84h-668c-45 0-82 39-82 84v500c0 45 37 84 82 84h668z" horiz-adv-x="1000" />

<glyph glyph-name="hd" unicode="&#xe832;" d="M604 267v125h84v-125h-84z m-63 187v-250h168c23 0 41 18 41 41v168c0 24-18 41-41 41h-168z m-82-250v250h-62v-103h-84v103h-63v-250h63v84h84v-84h62z m332 500c45 0 84-39 84-84v-582c0-45-39-84-84-84h-582c-47 0-84 39-84 84v582c0 45 37 84 84 84h582z" horiz-adv-x="1000" />

<glyph glyph-name="sort_by_alpha" unicode="&#xe833;" d="M656 157h254v-66h-355v53l246 357h-244v66h345v-52z m-449 104h162l-82 217z m47 306h68l188-476h-76l-39 101h-213l-39-101h-77z m174-544h193l-98-98z m195 613h-197l97 98z" horiz-adv-x="1000" />

<glyph glyph-name="airplay" unicode="&#xe834;" d="M875 704c45 0 84-39 84-84v-500c0-45-39-82-84-82h-166v82h166v500h-750v-500h166v-82h-166c-45 0-84 37-84 82v500c0 45 39 84 84 84h750z m-625-791l250 250 250-250h-500z" horiz-adv-x="1000" />

<glyph glyph-name="forward_10" unicode="&#xe835;" d="M551 196c0-6 12-13 19-13 4 0 10 0 14 4l8 9s4 8 4 12v84c0 0-4 8-4 12 0 5-16 13-22 13-4 0-7-1-11-5l-8-8s-6-8-6-12v-84s6-8 6-12z m78 41c0-11 0-25-4-33l-12-25s-13-12-21-12-18-4-26-4-17 0-25 4-12 8-19 12c-14 6-18 38-18 58v30c0 11 0 25 4 33l14 25s11 12 19 12 18 4 25 4 18 0 26-4 14-8 21-12 8-13 12-25 4-22 4-33v-30z m-174-74h-39v137l-41-12v29l74 24h6v-178z m-289 125c0 184 150 332 334 332v168l209-209-209-209v168c-137 0-250-113-250-250s113-250 250-250 250 113 250 250h84c0-183-150-334-334-334s-334 151-334 334z" horiz-adv-x="1000" />

<glyph glyph-name="forward_30" unicode="&#xe836;" d="M166 288c0 184 150 332 334 332v168l209-209-209-209v168c-137 0-250-113-250-250s113-250 250-250 250 113 250 250h84c0-183-150-334-334-334s-334 151-334 334z m389-92c0-6 12-13 19-13 4 0 10 0 14 4l8 9s4 8 4 12v84c0 0-4 8-4 12 0 5-16 13-22 13-4 0-8-1-11-5l-8-8s-4-8-4-12v-84s4-8 4-12z m82 41c0-11 0-25-4-33l-12-25s-14-12-21-12-18-4-26-4c-20 0-31 9-45 16-7 4-7 13-11 25s-6 22-6 33v30c0 11 2 25 6 33l11 25s14 12 22 12 15 4 23 4 18 0 26-4 13-8 21-12 8-13 12-25 4-22 4-33v-30z m-221 30c16 0 29 9 29 25v8s-4 4-4 8-3 4-7 4h-22s-4-4-8-4-4-4-4-8v-8h-43c0 19 18 45 36 45 4 0 15 4 19 4 17 0 35-6 47-12 10-5 16-23 16-37v-14s-4-7-4-11-4-8-8-8-10-6-14-10c8-4 18-8 22-15s8-18 8-26 0-17-4-21-8-12-12-16-14-8-22-8-17-4-25-4-16 0-19 4-14 4-22 8c-11 5-18 26-18 41h36v-8s4-4 4-8 3-4 7-4h22s4 4 8 4 4 4 4 8v22s-4 4-4 8-4 3-8 3h-26v30h16z" horiz-adv-x="1000" />

<glyph glyph-name="forward_5" unicode="&#xe837;" d="M488 263c-3-2-13-5-13-8 0-4-4-6-4-6h-26l10 92h100v-29h-73l-3-37s3 0 3 3 6 2 6 6 4 0 8 0h8c8 0 18-2 21-6s12-7 16-11c9-9 18-27 18-45 0-8 0-18-4-22s-6-13-14-21c-11-11-26-16-45-16-8 0-17 0-21 4s-12 4-20 8c-11 5-17 22-17 37h33c0-14 10-20 25-20 4 0 8 0 12 4l10 8s4 8 4 12v25l-4 8-10 10s-8 4-12 4h-8z m-322 25c0 184 150 332 334 332v168l209-209-209-209v168c-137 0-250-113-250-250s113-250 250-250 250 113 250 250h84c0-183-150-334-334-334s-334 151-334 334z" horiz-adv-x="1000" />

<glyph glyph-name="replay_10" unicode="&#xe838;" d="M551 196c0-6 12-13 19-13 4 0 10 0 14 4l8 9s4 8 4 12v84c0 0-4 8-4 12 0 5-16 13-22 13-4 0-7-1-11-5l-8-8s-6-8-6-12v-84s6-8 6-12z m82 41c0-11 0-25-4-33l-12-25s-13-12-21-12-18-4-26-4-17 0-25 4-12 8-20 12c-13 6-17 38-17 58v30c0 11 0 25 4 33l13 25s12 12 20 12 18 4 25 4 18 0 26-4 13-8 21-12 8-13 12-25 4-22 4-33v-30z m-178-74h-39v137l-41-12v29l74 24h6v-178z m45 457c184 0 334-148 334-332s-150-334-334-334-334 151-334 334h84c0-137 113-250 250-250s250 113 250 250-113 250-250 250v-168l-209 209 209 209v-168z" horiz-adv-x="1000" />

<glyph glyph-name="replay_30" unicode="&#xe839;" d="M559 196c0-7 13-13 21-13 4 0 8 0 12 4l8 9s4 8 4 12v84c0 4-4 8-4 12 0 4-15 13-20 13-4 0-10-1-14-5l-7-8s-4-8-4-12v-84s4-8 4-12z m78 41c0-11 0-25-4-33l-12-25s-14-12-21-12-18-4-26-4c-20 0-31 9-45 16-7 4-7 13-11 25s-6 22-6 33v30c0 11 2 25 6 33l11 25s14 12 22 12 15 4 23 4 18 0 26-4 13-8 21-12 8-13 12-25 4-22 4-33v-30z m-221 30c16 0 29 9 29 25v8s-4 4-4 8-3 4-7 4h-22s-4-4-8-4-4-4-4-8v-8h-43c0 19 18 45 36 45 4 0 15 4 19 4 17 0 35-6 47-12 10-5 16-23 16-37v-14s-4-7-4-11-4-8-8-8-10-6-14-10c8-4 18-8 22-15s8-18 8-26 0-17-4-21-8-12-12-16-14-8-22-8-17-4-25-4-16 0-19 4-14 4-22 8c-11 5-18 26-18 41h36v-8s4-4 4-8 3-4 7-4h22s4 4 8 4 4 4 4 8v22s-4 4-4 8-4 3-8 3h-26v30h16z m84 353c184 0 334-148 334-332s-150-334-334-334-334 151-334 334h84c0-137 113-250 250-250s250 113 250 250-113 250-250 250v-168l-209 209 209 209v-168z" horiz-adv-x="1000" />

<glyph glyph-name="replay_5" unicode="&#xe83a;" d="M492 263c-3-2-13-5-13-8 0-4-4-6-4-6h-30l10 92h100v-29h-73l-3-37s3 0 3 3 6 2 6 6 4 0 8 0h8c8 0 18-2 21-6s12-7 16-11c9-9 18-27 18-45 0-8 0-18-4-22s-6-13-14-21-12-8-16-12-17-4-25-4-18 0-21 4-12 4-20 8c-11 5-18 22-18 37h34c0-14 10-20 25-20 4 0 8 0 12 4l10 8s3 8 3 12v25l-3 8-10 10s-8 4-12 4h-8z m8 357c184 0 334-148 334-332s-150-334-334-334-334 151-334 334h84c0-137 113-250 250-250s250 113 250 250-113 250-250 250v-168l-209 209 209 209v-168z" horiz-adv-x="1000" />

<glyph glyph-name="add_to_queue" unicode="&#xe83b;" d="M666 413v-84h-125v-125h-82v125h-125v84h125v125h82v-125h125z m209-293v500h-750v-500h750z m0 584c45 0 84-37 84-84l-2-500c0-45-37-82-82-82h-209v-84h-332v84h-209c-47 0-84 37-84 82v500c0 47 37 84 84 84h750z" horiz-adv-x="1000" />

<glyph glyph-name="fiber_dvr" unicode="&#xe83c;" d="M875 351v41c0 35-27 62-62 62h-147v-250h63v84h48l36-84h62l-37 88c21 10 37 33 37 59z m-350-147l75 250h-63l-43-142-41 142h-62l72-250h62z m-191 63v125c0 35-27 62-62 62h-147v-250h147c35 0 62 28 62 63z m541 437c47 0 84-37 84-84v-582c0-45-37-84-84-84h-750c-47 0-84 39-84 84v582c0 47 37 84 84 84h750z m-687-312h84v-125h-84v125z m541 0h84v-41h-84v41z" horiz-adv-x="1000" />

<glyph glyph-name="fiber_new" unicode="&#xe83d;" d="M854 245v209h-51v-187h-47v146h-53v-146h-47v187h-52v-209c0-23 19-41 43-41h166c23 0 41 18 41 41z m-291 156v53h-166v-250h166v53h-104v45h104v53h-104v46h104z m-209-197v250h-51v-146l-106 146h-50v-250h50v147l108-147h49z m480 459c47 0 82-37 82-84v-500c0-47-35-84-82-84h-668c-47 0-82 37-82 84v500c0 47 35 84 82 84h668z" horiz-adv-x="1000" />

<glyph glyph-name="playlist_play" unicode="&#xe83e;" d="M709 288l207-125-207-125v250z m-625-84v84h541v-84h-541z m707 416v-82h-707v82h707z m0-166v-84h-707v84h707z" horiz-adv-x="1000" />

<glyph glyph-name="art_track" unicode="&#xe83f;" d="M438 204l-94 125-72-94-53 63-72-94h291z m62 250v-250c0-45-39-84-84-84h-250c-45 0-82 39-82 84v250c0 45 37 84 82 84h250c45 0 84-39 84-84z m84-334v84h332v-84h-332z m332 418v-84h-332v84h332z m0-250h-332v82h332v-82z" horiz-adv-x="1000" />

<glyph glyph-name="fiber_manual_record" unicode="&#xe840;" d="M166 329c0 184 150 334 334 334s334-150 334-334-150-334-334-334-334 151-334 334z" horiz-adv-x="1000" />

<glyph glyph-name="fiber_smart_record" unicode="&#xe841;" d="M709 651c145-37 250-166 250-322s-105-285-250-322v86c98 33 166 127 166 236s-68 203-166 237v85z m-668-322c0 184 150 334 334 334s334-150 334-334-150-334-334-334-334 151-334 334z" horiz-adv-x="1000" />

<glyph glyph-name="music_video" unicode="&#xe842;" d="M334 204c0 69 57 125 125 125 14 0 27-4 41-8v258h209v-84h-125v-293c0-68-57-123-125-123s-125 57-125 125z m541-166v582h-750v-582h750z m0 666c45 0 84-39 84-84v-582c0-45-39-84-84-84h-750c-45 0-84 39-84 84v582c0 45 39 84 84 84h750z" horiz-adv-x="1000" />

<glyph glyph-name="subscriptions" unicode="&#xe843;" d="M666 163l-250 135v-272z m250 166v-334c0-45-37-82-82-82h-668c-45 0-82 37-82 82v334c0 45 37 84 82 84h668c45 0 82-39 82-84z m-166 416v-82h-500v82h500z m84-250h-668v84h668v-84z" horiz-adv-x="1000" />

<glyph glyph-name="playlist_add_check" unicode="&#xe844;" d="M897 351l62-63-291-293-189 188 62 62 127-125z m-813-188v82h332v-82h-332z m500 416v-84h-500v84h500z m0-166v-84h-500v84h500z" horiz-adv-x="1000" />

<glyph glyph-name="queue_play_next" unicode="&#xe845;" d="M1000 79l-187-187-63 62 125 125-125 125 63 63z m-459 334h125v-84h-125v-125h-82v125h-125v84h125v125h82v-125z m334 291c45 0 84-37 84-84v-332h-84v332h-750v-500h625v-82h-84v-84h-332v84h-209c-47 0-84 37-84 82v500c0 47 37 84 84 84h750z" horiz-adv-x="1000" />

<glyph glyph-name="remove_from_queue" unicode="&#xe846;" d="M666 413v-84h-332v84h332z m209-293v500h-750v-500h750z m0 584c45 0 84-37 84-84l-2-500c0-45-37-82-82-82h-209v-84h-332v84h-209c-47 0-84 37-84 82v500c0 47 37 84 84 84h750z" horiz-adv-x="1000" />

<glyph glyph-name="slow_motion_video" unicode="&#xe847;" d="M916 329c0-215-164-392-373-414v84c164 22 291 162 291 330s-127 309-291 330v84c209-21 373-199 373-414z m-680-322l59 59c47-36 103-59 164-67v-84c-84 8-160 41-223 92z m-66 281c8-60 31-117 66-162l-58-60c-51 62-84 138-92 222h84z m66 246c-35-47-58-103-66-164h-84c8 84 41 160 92 223z m223 125c-61-8-117-31-164-66l-59 58c63 51 139 84 223 92v-84z m84-238l123-92c-84-62-167-124-250-187z" horiz-adv-x="1000" />

<glyph glyph-name="web_asset" unicode="&#xe848;" d="M791 79v416h-582v-416h582z m0 584c47 0 84-39 84-84v-500c0-45-39-84-84-84h-582c-47 0-84 39-84 84v500c0 45 37 84 84 84h582z" horiz-adv-x="1000" />

<glyph glyph-name="fiber_pin" unicode="&#xe849;" d="M834 204v250h-53v-146l-103 146h-53v-250h53v147l105-147h51z m-312 0v250h-63v-250h63z m-147 147v41c0 35-27 62-62 62h-147v-250h63v84h84c35 0 62 28 62 63z m459 312c47 0 82-37 82-84v-500c0-47-35-84-82-84h-668c-47 0-82 37-82 84v500c0 47 35 84 82 84h668z m-605-271h84v-41h-84v41z" horiz-adv-x="1000" />

<glyph glyph-name="branding_watermark" unicode="&#xe84a;" d="M875 38v250h-375v-250h375z m0 666c45 0 84-39 84-84v-582c0-45-39-84-84-84h-750c-45 0-84 39-84 84v582c0 45 39 84 84 84h750z" horiz-adv-x="1000" />

<glyph glyph-name="call_to_action" unicode="&#xe84b;" d="M875 38v125h-750v-125h750z m0 666c45 0 84-39 84-84v-582c0-45-39-84-84-84h-750c-45 0-84 39-84 84v582c0 45 39 84 84 84h750z" horiz-adv-x="1000" />

<glyph glyph-name="featured_play_list" unicode="&#xe84c;" d="M500 538v82h-375v-82h375z m0-168v84h-375v-84h375z m375 334c45 0 84-39 84-84v-582c0-45-39-84-84-84h-750c-45 0-84 39-84 84v582c0 45 39 84 84 84h750z" horiz-adv-x="1000" />

<glyph glyph-name="featured_video" unicode="&#xe84d;" d="M500 329v291h-375v-291h375z m375 375c45 0 84-39 84-84v-582c0-45-39-84-84-84h-750c-45 0-84 39-84 84v582c0 45 39 84 84 84h750z" horiz-adv-x="1000" />

<glyph glyph-name="note" unicode="&#xe84e;" d="M625 601v-231h229z m291-188v-334c0-45-37-82-82-82l-668-2c-45 0-82 39-82 84v500c0 45 37 84 82 84h500z" horiz-adv-x="1000" />

<glyph glyph-name="video_call" unicode="&#xe84f;" d="M584 288v82h-125v125h-84v-125h-125v-82h125v-125h84v125h125z m125 104l166 166v-457l-166 166v-147c0-23-19-41-43-41h-500c-23 0-41 18-41 41v418c0 24 18 41 41 41h500c24 0 43-17 43-41v-146z" horiz-adv-x="1000" />

<glyph glyph-name="video_label" unicode="&#xe850;" d="M875 163v457h-750v-457h750z m0 541c45 0 84-39 84-84v-582c0-45-39-84-84-84h-750c-45 0-84 39-84 84v582c0 45 39 84 84 84h750z" horiz-adv-x="1000" />

<glyph glyph-name="call_end" unicode="&#xe851;" d="M500 454c-66 0-131-10-191-29v-129c0-16-10-33-24-39-41-20-78-45-111-76-8-8-18-12-29-12s-22 4-30 12l-103 103c-8 8-12 18-12 30s4 21 12 29c127 121 299 195 488 195s361-74 488-195c8-8 12-18 12-29s-4-22-12-30l-103-103c-8-8-18-12-29-12s-22 4-30 12c-33 31-70 56-111 76-14 6-24 19-24 37v129c-60 19-125 31-191 31z" horiz-adv-x="1000" />

<glyph glyph-name="call_made" unicode="&#xe852;" d="M375 620h416v-416h-82v276l-484-485-59 59 484 484h-275v82z" horiz-adv-x="1000" />

<glyph glyph-name="call_missed" unicode="&#xe853;" d="M816 538l59-58-375-375-291 291v-192h-84v334h334v-84h-191l232-232z" horiz-adv-x="1000" />

<glyph glyph-name="call_received" unicode="&#xe854;" d="M834 605l-484-485h275v-82h-416v416h82v-275l484 484z" horiz-adv-x="1000" />

<glyph glyph-name="call_split" unicode="&#xe855;" d="M416 663l-96-96 221-220v-352h-82v317l-197 197-96-96v250h250z m168 0h250v-250l-96 96-121-121-58 58 121 121z" horiz-adv-x="1000" />

<glyph glyph-name="chat1" unicode="&#xe856;" d="M750 495v84h-500v-84h500z m-166-250v84h-334v-84h334z m-334 209v-84h500v84h-500z m584 291c45 0 82-37 82-82v-500c0-45-37-84-82-84h-584l-166-166v750c0 45 37 82 82 82h668z" horiz-adv-x="1000" />

<glyph glyph-name="clear_all" unicode="&#xe857;" d="M291 538h584v-84h-584v84z m-166-418v84h584v-84h-584z m84 168v82h582v-82h-582z" horiz-adv-x="1000" />

<glyph glyph-name="comment3" unicode="&#xe858;" d="M750 495v84h-500v-84h500z m0-125v84h-500v-84h500z m0-125v84h-500v-84h500z m166 418v-750l-166 166h-584c-45 0-82 39-82 84v500c0 45 37 82 82 82h668c45 0 82-37 82-82z" horiz-adv-x="1000" />

<glyph glyph-name="contacts" unicode="&#xe859;" d="M709 120v63c0 70-139 105-209 105s-209-35-209-105v-63h418z m-209 428c-51 0-94-43-94-94s43-94 94-94 94 43 94 94-43 94-94 94z m334 115c45 0 82-39 82-84v-500c0-45-37-84-82-84h-668c-45 0-82 39-82 84v500c0 45 37 84 82 84h668z m-668-834v84h668v-84h-668z m668 1000v-84h-668v84h668z" horiz-adv-x="1000" />

<glyph glyph-name="dialer_sip" unicode="&#xe85a;" d="M834 183c23 0 41-18 41-41v-147c0-23-18-41-41-41-391 0-709 319-709 709 0 24 18 41 41 41h147c23 0 41-17 41-41 0-53 7-101 23-148 4-14 2-31-10-43l-92-92c61-119 159-215 276-275l92 91c11 12 29 14 43 10 46-15 95-23 148-23z m0 437v43h-43v-43h43z m-84 84h125v-125h-84v-84h-41v209z m-125-84v-125h-125v43h84v41h-84v125h125v-41h-84v-43h84z m84 84v-209h-43v209h43z" horiz-adv-x="1000" />

<glyph glyph-name="dialpad" unicode="&#xe85b;" d="M500 788c45 0 84-39 84-84s-39-84-84-84-84 39-84 84 39 84 84 84z m0-250c45 0 84-39 84-84s-39-84-84-84-84 39-84 84 39 84 84 84z m250 0c45 0 84-39 84-84s-39-84-84-84-84 39-84 84 39 84 84 84z m0-250c45 0 84-39 84-84s-39-84-84-84-84 39-84 84 39 84 84 84z m-250 0c45 0 84-39 84-84s-39-84-84-84-84 39-84 84 39 84 84 84z m250 332c-45 0-84 39-84 84s39 84 84 84 84-39 84-84-39-84-84-84z m-500-332c45 0 84-39 84-84s-39-84-84-84-84 39-84 84 39 84 84 84z m0 250c45 0 84-39 84-84s-39-84-84-84-84 39-84 84 39 84 84 84z m0 250c45 0 84-39 84-84s-39-84-84-84-84 39-84 84 39 84 84 84z m250-750c45 0 84-39 84-84s-39-84-84-84-84 39-84 84 39 84 84 84z" horiz-adv-x="1000" />

<glyph glyph-name="import_export" unicode="&#xe85c;" d="M666 120h125l-166-166-166 166h125v293h82v-293z m-291 584l166-166h-125v-293h-82v293h-125z" horiz-adv-x="1000" />

<glyph glyph-name="invert_colors_off" unicode="&#xe85d;" d="M500 616l-96-93-58 58 154 154 236-236c102-101 123-252 67-375l-303 301v191z m0-603v201l-199 199c-33-43-51-96-51-150 0-135 116-250 250-250z m361-53l14-16-53-52-113 113c-61-49-135-74-209-74-86 0-172 33-236 97-121 123-129 315-24 446l-115 115 53 53c227-228 454-457 683-682z" horiz-adv-x="1000" />

<glyph glyph-name="live_help" unicode="&#xe85e;" d="M627 401c23 24 39 57 39 94 0 92-74 168-166 168s-166-76-166-168h82c0 45 39 84 84 84s84-39 84-84c0-23-10-43-25-58l-51-53c-29-31-49-72-49-117v-22h82c0 63 20 88 49 119z m-86-322v84h-82v-84h82z m250 666c45 0 84-37 84-82v-584c0-45-39-84-84-84h-166l-125-125-125 125h-166c-47 0-84 39-84 84v584c0 45 37 82 84 82h582z" horiz-adv-x="1000" />

<glyph glyph-name="location_off" unicode="&#xe85f;" d="M488 351c116-115 231-229 346-344l-53-53-140 139c-71-104-141-180-141-180s-291 322-291 541c0 22 4 43 8 65l-133 132 53 53 347-347z m12 207c-31 0-57-14-76-35l-135 132c53 55 129 90 211 90 162 0 291-129 291-291 0-70-29-150-70-228l-151 152c22 20 34 45 34 76 0 57-47 104-104 104z" horiz-adv-x="1000" />

<glyph glyph-name="message" unicode="&#xe860;" d="M750 495v84h-500v-84h500z m0-125v84h-500v-84h500z m0-125v84h-500v-84h500z m84 500c45 0 82-37 82-82v-500c0-45-37-84-82-84h-584l-166-166v750c0 45 37 82 82 82h668z" horiz-adv-x="1000" />

<glyph glyph-name="chat_bubble" unicode="&#xe861;" d="M834 745c45 0 82-37 82-82v-500c0-45-37-84-82-84h-584l-166-166v750c0 45 37 82 82 82h668z" horiz-adv-x="1000" />

<glyph glyph-name="chat_bubble_outline" unicode="&#xe862;" d="M834 163v500h-668v-584l84 84h584z m0 582c45 0 82-37 82-82v-500c0-45-37-84-82-84h-584l-166-166v750c0 45 37 82 82 82h668z" horiz-adv-x="1000" />

<glyph glyph-name="phone2" unicode="&#xe863;" d="M275 380c61-117 159-215 276-275l92 91c11 12 29 16 43 10 46-15 97-23 148-23 23 0 41-18 41-41v-147c0-23-18-41-41-41-391 0-709 319-709 709 0 24 18 41 41 41h147c23 0 41-17 41-41 0-53 7-101 23-148 4-14 2-31-10-43z" horiz-adv-x="1000" />

<glyph glyph-name="portable_wifi_off" unicode="&#xe864;" d="M137 726l41-43 697-698-53-52-312 314h-2l-8-2c-45 0-84 39-84 84l2 8-66 66c-12-23-18-46-18-74 0-62 33-115 82-144l-41-73c-74 43-125 125-125 217 0 51 14 96 39 135l-58 61c-40-55-65-122-65-196 0-123 66-230 166-289l-41-72c-125 72-207 207-207 361 0 96 31 186 86 256l-86 88z m363-63c-57 0-109-13-156-39l-61 61c63 39 137 60 217 60 231 0 416-185 416-416 0-80-21-154-60-217l-63 61c25 47 41 100 41 156 0 184-150 334-334 334z m232-428l-68 69c2 8 2 17 2 25 0 92-74 166-166 166-8 0-18 0-25-2l-69 69c30 11 61 17 94 17 139 0 250-111 250-250 0-33-6-64-18-94z" horiz-adv-x="1000" />

<glyph glyph-name="contact_phone" unicode="&#xe865;" d="M744 245c-10 26-15 55-15 84s5 59 15 84h69l62 82-82 84c-55-41-96-97-115-166-8-27-12-54-12-84s4-56 12-84c19-66 60-125 115-166l82 84-62 82h-69z m-160-166v41c0 84-166 129-250 129s-250-45-250-129v-41h500z m-250 500c-68 0-125-56-125-125s57-125 125-125 125 57 125 125-57 125-125 125z m582 125c45 0 84-39 84-84v-582c0-45-39-84-84-84h-832c-45 0-84 39-84 84v582c0 45 39 84 84 84h832z" horiz-adv-x="1000" />

<glyph glyph-name="contact_mail" unicode="&#xe866;" d="M916 329v250h-332v-250h332z m-332-250v41c0 84-166 129-250 129s-250-45-250-129v-41h500z m-250 500c-68 0-125-56-125-125s57-125 125-125 125 57 125 125-57 125-125 125z m582 125c45 0 84-39 84-84v-582c0-45-39-84-84-84h-832c-45 0-84 39-84 84v582c0 45 39 84 84 84h832z m-41-209l-125-82-125 82v43l125-84 125 84v-43z" horiz-adv-x="1000" />

<glyph glyph-name="ring_volume" unicode="&#xe867;" d="M268 421c0 0-145 145-149 146l59 61 148-148z m273 324v-207h-82v207h82z m340-178c-4-1-149-146-149-146l-58 59 148 148z m107-433c8-8 12-18 12-29s-4-22-12-30l-103-103c-8-8-18-12-29-12s-22 4-30 12c-33 31-70 58-111 78-14 6-24 21-24 37v129c-60 19-125 29-191 29s-131-10-191-29v-129c0-18-10-33-24-39-41-20-78-45-111-76-8-8-18-12-29-12s-22 4-30 12l-103 103c-8 8-12 18-12 30s4 21 12 29c127 121 299 195 488 195s361-74 488-195z" horiz-adv-x="1000" />

<glyph glyph-name="speaker_phone" unicode="&#xe868;" d="M625-5v334h-250v-334h250z m-6 416c26 0 47-21 47-47v-404c0-25-21-47-47-47h-238c-25 0-47 22-47 47v404c0 26 22 49 47 49z m-119 377c125 0 240-53 322-135l-58-58c-69 68-160 109-264 109s-195-41-264-109l-58 58c82 82 197 135 322 135z m-209-254c53 53 127 86 209 86s156-33 209-86l-61-58c-37 37-89 60-148 60s-111-23-148-60z" horiz-adv-x="1000" />

<glyph glyph-name="stay_primary_landscape" unicode="&#xe869;" d="M791 538h-582v-418h582v418z m-748 0c0 45 37 82 82 82h750c45 0 84-37 84-82v-418c0-45-39-82-84-82h-750c-45 0-84 37-84 82z" horiz-adv-x="1000" />

<glyph glyph-name="stay_primary_portrait" unicode="&#xe86a;" d="M709 38v582h-418v-582h418z m0 748c45 0 82-37 82-82v-750c0-45-37-84-82-84h-418c-45 0-82 39-82 84v750c0 45 37 84 82 84z" horiz-adv-x="1000" />

<glyph glyph-name="swap_calls" unicode="&#xe86b;" d="M750 663l166-168h-125v-291c0-92-74-166-166-166s-166 74-166 166v291c0 45-39 84-84 84s-84-39-84-84v-291h125l-166-166-166 166h125v291c0 92 74 168 166 168s166-76 166-168v-291c0-45 39-84 84-84s84 39 84 84v291h-125z" horiz-adv-x="1000" />

<glyph glyph-name="textsms" unicode="&#xe86c;" d="M709 370v84h-84v-84h84z m-168 0v84h-82v-84h82z m-166 0v84h-84v-84h84z m459 375c45 0 82-37 82-82v-500c0-45-37-84-82-84h-584l-166-166v750c0 45 37 82 82 82h668z" horiz-adv-x="1000" />

<glyph glyph-name="voicemail" unicode="&#xe86d;" d="M772 204c80 0 144 67 144 147s-64 144-144 144-147-64-147-144 66-147 147-147z m-543 0c80 0 146 67 146 147s-66 144-146 144-145-64-145-144 64-147 145-147z m543 375c126 0 228-101 228-228s-102-231-228-231h-543c-127 0-229 104-229 231s102 228 229 228 230-101 230-228c0-55-19-108-53-147h188c-33 39-53 92-53 147 0 127 104 228 231 228z" horiz-adv-x="1000" />

<glyph glyph-name="vpn_key" unicode="&#xe86e;" d="M291 245c45 0 84 39 84 84s-39 84-84 84-82-39-82-84 37-84 82-84z m236 168h432v-168h-84v-166h-166v166h-182c-33-97-127-166-236-166-139 0-250 112-250 250s111 250 250 250c109 0 203-68 236-166z" horiz-adv-x="1000" />

<glyph glyph-name="phonelink_erase" unicode="&#xe86f;" d="M791 788c45 0 84-39 84-84v-750c0-45-39-84-84-84h-416c-45 0-84 39-84 84v125h84v-84h416v668h-416v-84h-84v125c0 45 39 84 84 84h416z m-250-301l-166-166 166-168-41-41-166 166-168-166-41 41 166 168-166 166 41 41 168-166 166 166z" horiz-adv-x="1000" />

<glyph glyph-name="phonelink_lock" unicode="&#xe870;" d="M397 370v63c0 33-30 54-63 54s-62-21-62-54v-63h125z m52 0c26 0 51-23 51-53v-146c0-25-25-51-55-51h-228c-26 0-51 26-51 55v146c0 26 25 49 51 49v63c0 58 58 105 117 105s115-47 115-105v-63z m342 418c45 0 84-39 84-84v-750c0-45-39-84-84-84h-416c-45 0-84 39-84 84v125h84v-84h416v668h-416v-84h-84v125c0 45 39 84 84 84h416z" horiz-adv-x="1000" />

<glyph glyph-name="phonelink_ring" unicode="&#xe871;" d="M584-5v668h-418v-668h418z m0 793c45 0 82-39 82-84v-750c0-45-37-84-82-84h-418c-45 0-82 39-82 84v750c0 45 37 84 82 84h418z m166-367c51-55 51-129 0-180l-41 43c22 30 22 67 0 96z m88 88c103-100 103-260 0-356l-43 43c74 80 74 196 0 270z" horiz-adv-x="1000" />

<glyph glyph-name="phonelink_setup" unicode="&#xe872;" d="M791 788c45 0 84-39 84-84v-750c0-45-39-84-84-84h-416c-45 0-84 39-84 84v125h84v-84h416v668h-416v-84h-84v125c0 45 39 84 84 84h416z m-457-543c45 0 82 39 82 84s-37 84-82 84-84-39-84-84 39-84 84-84z m158 63l45-37c4-4 8-8 4-12l-41-72c-4-4-8-4-12-4l-54 21c-12-8-26-17-37-21l-10-53c-4-4-8-10-12-10h-84c-4 0-12 6-8 10l-8 53c-11 4-25 13-37 21l-58-17c-4-4-10 2-14 5l-41 71c0 4 0 8 4 15l47 34v43l-47 33c-4 4-8 8-4 12l41 72c4 4 10 4 14 4l52-22c12 8 28 18 40 22l7 52c4 4 8 10 12 10h84c8 0 12-6 12-10l10-52c11-4 25-14 37-22l54 18c4 4 8-2 12-6l41-70c0-4 0-8-4-12l-45-33v-43z" horiz-adv-x="1000" />

<glyph glyph-name="present_to_all" unicode="&#xe873;" d="M416 329h-82l166 166 166-166h-82v-166h-168v166z m459-293v586h-750v-586h750z m0 668c47 0 84-37 84-84v-582c0-47-37-84-84-84h-750c-47 0-84 37-84 84v582c0 47 37 84 84 84h750z" horiz-adv-x="1000" />

<glyph glyph-name="import_contacts" unicode="&#xe874;" d="M875 58v480c-45 14-96 20-146 20-71 0-172-28-229-63v-478c57 35 158 62 229 62 50 0 101-8 146-21z m-146 584c86 0 177-22 230-63v-607c0-10-12-22-21-22-4 0-6 0-10 2-59 31-131 43-199 43-71 0-172-27-229-62-60 45-146 62-228 62-61 0-143-17-200-45-4 0-6-2-9-2-10 0-22 10-22 20v611c61 45 149 63 231 63s168-18 228-63c61 45 147 63 229 63z" horiz-adv-x="1000" />

<glyph glyph-name="mail_outline" unicode="&#xe875;" d="M500 370l334 209h-668z m334-291v416l-334-207-334 207v-416h668z m0 584c45 0 82-39 82-84v-500c0-45-37-84-82-84h-668c-45 0-82 39-82 84v500c0 45 37 84 82 84h668z" horiz-adv-x="1000" />

<glyph glyph-name="screen_share" unicode="&#xe876;" d="M541 226l168 156-168 156v-90c-162-23-226-132-250-244 59 78 135 113 250 113v-91z m293-147h166v-84h-1000v84h166c-47 0-82 39-82 84v416c0 47 35 84 82 84h668c45 0 82-37 82-84v-416c0-45-37-84-82-84z" horiz-adv-x="1000" />

<glyph glyph-name="stop_screen_share" unicode="&#xe877;" d="M291 204c39 55 88 86 152 102l-66 66c-49-47-72-105-86-168z m-191 553l822-822-53-53-113 113h-756v84h166c-47 0-82 37-82 82v418c0 26 10 45 27 61l-64 64z m816-596c0-31-18-58-43-72l-230 230 66 63-168 154v-88c-8-2-14-2-21-4l-219 217h533c45 0 82-35 82-82v-418z m-31-82h115v-84h-33z" horiz-adv-x="1000" />

<glyph glyph-name="call_missed_outgoing" unicode="&#xe878;" d="M125 480l59 58 316-316 232 232h-191v84h334v-334h-84v192l-291-291z" horiz-adv-x="1000" />

<glyph glyph-name="rss_feed" unicode="&#xe879;" d="M166 409c229 0 414-185 414-414h-119c0 162-133 295-295 295v119z m0 235c357 0 649-291 649-649h-118c0 293-238 531-531 531v118z m0-557c0 51 41 90 92 90s90-39 90-90-39-92-90-92-92 41-92 92z" horiz-adv-x="1000" />

<glyph glyph-name="add" unicode="&#xe87a;" d="M791 288h-250v-250h-82v250h-250v82h250v250h82v-250h250v-82z" horiz-adv-x="1000" />

<glyph glyph-name="add_box" unicode="&#xe87b;" d="M709 288v82h-168v168h-82v-168h-168v-82h168v-168h82v168h168z m82 416c45 0 84-39 84-84v-582c0-45-39-84-84-84h-582c-47 0-84 39-84 84v582c0 45 37 84 84 84h582z" horiz-adv-x="1000" />

<glyph glyph-name="add_circle" unicode="&#xe87c;" d="M709 288v82h-168v168h-82v-168h-168v-82h168v-168h82v168h168z m-209 457c231 0 416-185 416-416s-185-416-416-416-416 186-416 416 186 416 416 416z" horiz-adv-x="1000" />

<glyph glyph-name="archive1" unicode="&#xe87d;" d="M213 620h574l-39 43h-500z m287-519l229 228h-145v84h-168v-84h-144z m356 509c11-13 19-33 19-52v-520c0-45-39-84-84-84h-582c-45 0-84 39-84 84v520c0 19 8 39 20 52l56 71c12 13 30 23 49 23h500c20 0 37-10 49-23z" horiz-adv-x="1000" />

<glyph glyph-name="backspace" unicode="&#xe87e;" d="M791 179l-148 150 148 151-59 58-148-150-150 150-59-58 150-151-150-150 59-59 150 151 148-151z m125 525c45 0 84-39 84-84v-582c0-45-39-84-84-84h-625c-29 0-51 16-66 37l-225 338 225 338c15 22 37 37 66 37h625z" horiz-adv-x="1000" />

<glyph glyph-name="block" unicode="&#xe87f;" d="M500-5c184 0 334 151 334 334 0 76-25 149-70 205l-469-468c57-45 129-71 205-71z m-334 334c0-76 25-148 70-205l469 469c-57 45-129 70-205 70-184 0-334-150-334-334z m334 416c231 0 416-185 416-416s-185-416-416-416-416 186-416 416 186 416 416 416z" horiz-adv-x="1000" />

<glyph glyph-name="content_copy" unicode="&#xe880;" d="M791-46v584h-457v-584h457z m0 666c45 0 84-37 84-82v-584c0-45-39-84-84-84h-457c-45 0-84 39-84 84v584c0 45 39 82 84 82h457z m-125 168v-84h-500v-584h-82v584c0 45 37 84 82 84h500z" horiz-adv-x="1000" />

<glyph glyph-name="content_cut" unicode="&#xe881;" d="M791 704h125v-41l-291-293-84 84z m-291-396c12 0 22 9 22 21s-10 22-22 22-21-10-21-22 9-21 21-21z m-250-313c45 0 84 37 84 84s-39 84-84 84-84-37-84-84 39-84 84-84z m0 500c45 0 84 37 84 84s-39 84-84 84-84-37-84-84 39-84 84-84z m152 16l514-516v-41h-125l-291 291-98-97c10-22 14-43 14-69 0-92-74-166-166-166s-166 74-166 166 74 166 166 166c25 0 47-4 68-13l98 97-98 98c-21-10-43-14-68-14-92 0-166 74-166 166s74 166 166 166 166-74 166-166c0-25-4-47-14-68z" horiz-adv-x="1000" />

<glyph glyph-name="content_paste" unicode="&#xe882;" d="M791-5v668h-82v-125h-418v125h-82v-668h582z m-291 750c-23 0-41-17-41-41s18-41 41-41 41 18 41 41-18 41-41 41z m291 0c45 0 84-37 84-82v-668c0-45-39-82-84-82h-582c-45 0-84 37-84 82v668c0 45 39 82 84 82h174c17 49 62 84 117 84s100-35 117-84h174z" horiz-adv-x="1000" />

<glyph glyph-name="drafts" unicode="&#xe883;" d="M500 288l344 215-344 201-344-201z m416 207v-416c0-45-37-84-82-84h-668c-45 0-82 39-82 84v416c0 30 16 59 39 72l377 221 377-221c23-13 39-42 39-72z" horiz-adv-x="1000" />

<glyph glyph-name="filter_list" unicode="&#xe884;" d="M250 288v82h500v-82h-500z m-125 291h750v-84h-750v84z m291-500v84h168v-84h-168z" horiz-adv-x="1000" />

<glyph glyph-name="flag2" unicode="&#xe885;" d="M600 579h234v-416h-293l-16 82h-234v-291h-82v709h375z" horiz-adv-x="1000" />

<glyph glyph-name="forward2" unicode="&#xe886;" d="M500 495v168l334-334-334-334v168h-334v332h334z" horiz-adv-x="1000" />

<glyph glyph-name="gesture" unicode="&#xe887;" d="M578 56c29 0 78 35 90 146-90-23-121-90-121-115 0-20 18-31 31-31z m-387 486l-72 70c10 12 20 24 35 39 10 10 59 53 114 53 37 0 105-29 105-119 0-57-21-90-55-137-19-27-62-101-76-146-15-45-6-80 14-80 17 0 37 23 47 35 10 10 72 82 95 113 32 39 112 117 206 117 123 0 162-105 168-173h103v-104h-102c-17-199-128-256-197-256-74 0-133 59-133 129s67 197 225 225c-4 33-6 74-74 74-53 0-119-80-170-143-47-56-82-101-127-115-97-31-166 55-166 143 0 101 109 246 119 263 12 20 33 55 12 63-14 6-41-22-71-51z" horiz-adv-x="1000" />

<glyph glyph-name="inbox2" unicode="&#xe888;" d="M791 204v416h-584v-416h168c0-68 57-125 125-125s125 57 125 125h166z m0 500c45 0 84-37 84-84v-582c0-45-39-84-84-84h-584c-47 0-82 39-82 84v582c0 47 35 84 82 84h584z" horiz-adv-x="1000" />

<glyph glyph-name="link2" unicode="&#xe889;" d="M709 538c115 0 207-94 207-209s-92-209-207-209h-168v80h168c70 0 129 59 129 129s-59 129-129 129h-168v80h168z m-375-250v82h332v-82h-332z m-172 41c0-70 59-129 129-129h168v-80h-168c-115 0-207 94-207 209s92 209 207 209h168v-80h-168c-70 0-129-58-129-129z" horiz-adv-x="1000" />

<glyph glyph-name="markunread" unicode="&#xe88a;" d="M834 495v84l-334-209-334 209v-84l334-207z m0 168c45 0 82-39 82-84v-500c0-45-37-84-82-84h-668c-45 0-82 39-82 84v500c0 45 37 84 82 84h668z" horiz-adv-x="1000" />

<glyph glyph-name="redo" unicode="&#xe88b;" d="M768 388l148 150v-375h-375l152 151c-58 48-132 78-214 78-149 0-274-96-317-229l-97 31c56 174 220 301 414 301 111 0 212-41 289-107z" horiz-adv-x="1000" />

<glyph glyph-name="remove1" unicode="&#xe88c;" d="M791 288h-582v82h582v-82z" horiz-adv-x="1000" />

<glyph glyph-name="remove_circle" unicode="&#xe88d;" d="M709 288v82h-418v-82h418z m-209 457c231 0 416-185 416-416s-185-416-416-416-416 186-416 416 186 416 416 416z" horiz-adv-x="1000" />

<glyph glyph-name="remove_circle_outline" unicode="&#xe88e;" d="M500-5c184 0 334 151 334 334s-150 334-334 334-334-150-334-334 150-334 334-334z m0 750c231 0 416-185 416-416s-185-416-416-416-416 186-416 416 186 416 416 416z m-209-375h418v-82h-418v82z" horiz-adv-x="1000" />

<glyph glyph-name="reply1" unicode="&#xe88f;" d="M416 454c291-41 418-250 459-459-103 147-250 213-459 213v-170l-291 291 291 291v-166z" horiz-adv-x="1000" />

<glyph glyph-name="reply_all" unicode="&#xe890;" d="M541 454c291-41 418-250 459-459-103 147-250 213-459 213v-170l-291 291 291 291v-166z m-250 41l-166-166 166-166v-125l-291 291 291 291v-125z" horiz-adv-x="1000" />

<glyph glyph-name="report" unicode="&#xe891;" d="M541 288v250h-82v-250h82z m-41-179c29 0 55 25 55 54s-26 53-55 53-55-24-55-53 26-54 55-54z m156 595l219-219v-312l-219-219h-312l-219 219v312l219 219h312z" horiz-adv-x="1000" />

<glyph glyph-name="save1" unicode="&#xe892;" d="M625 454v166h-416v-166h416z m-125-416c68 0 125 57 125 125s-57 125-125 125-125-56-125-125 57-125 125-125z m209 666l166-166v-500c0-45-39-84-84-84h-582c-47 0-84 39-84 84v582c0 45 37 84 84 84h500z" horiz-adv-x="1000" />

<glyph glyph-name="select_all" unicode="&#xe893;" d="M375 454v-250h250v250h-250z m-84-334v418h418v-418h-418z m334 500v84h84v-84h-84z m0-666v84h84v-84h-84z m166 166v84h84v-84h-84z m0 334v84h84v-84h-84z m0-500v84h84c0-45-39-84-84-84z m0 334v82h84v-82h-84z m-332-334v84h82v-84h-82z m-84 750v-84h-84v84h84z m-250-584v84h84v-84h-84z m84-166c-45 0-84 39-84 84h84v-84z m582 750c45 0 84-39 84-84h-84v84z m-250 0v-84h-82v84h82z m-416-250v84h84v-84h-84z m166-500v84h84v-84h-84z m-166 334v82h84v-82h-84z m0 332c0 45 39 84 84 84v-84h-84z" horiz-adv-x="1000" />

<glyph glyph-name="send1" unicode="&#xe894;" d="M84-46v291l625 84-625 84v291l875-375z" horiz-adv-x="1000" />

<glyph glyph-name="sort1" unicode="&#xe895;" d="M125 288v82h500v-82h-500z m0 291h750v-84h-750v84z m0-500v84h250v-84h-250z" horiz-adv-x="1000" />

<glyph glyph-name="text_format" unicode="&#xe896;" d="M500 579l-78-209h156z m-103-283l-40-92h-85l197 459h62l198-459h-86l-39 92h-207z m-188-176h582v-82h-582v82z" horiz-adv-x="1000" />

<glyph glyph-name="undo2" unicode="&#xe897;" d="M522 495c193 0 355-127 414-301l-98-31c-43 133-168 229-316 229-82 0-157-30-215-78l152-151h-375v375l148-150c77 66 178 107 290 107z" horiz-adv-x="1000" />

<glyph glyph-name="font_download" unicode="&#xe898;" d="M664 58h88l-213 543h-78l-213-543h88l47 125h234z m170 687c45 0 82-37 82-82v-668c0-45-37-82-82-82h-668c-45 0-82 37-82 82v668c0 45 37 82 82 82h668z m-420-478l86 230 86-230h-172z" horiz-adv-x="1000" />

<glyph glyph-name="move_to_inbox" unicode="&#xe899;" d="M666 413l-166-168-166 168h82v125h168v-125h82z m125-209v416h-584v-416h168c0-68 57-125 125-125s125 57 125 125h166z m0 500c45 0 84-39 84-84v-582c0-45-39-84-84-84h-584c-47 0-82 39-82 84v582c0 45 35 84 82 84h584z" horiz-adv-x="1000" />

<glyph glyph-name="unarchive" unicode="&#xe89a;" d="M213 620h574l-39 43h-500z m287-187l-228-229h144v-84h168v84h145z m356 179c11-13 19-35 19-54v-520c0-45-39-84-84-84h-582c-47 0-84 39-84 84v520c0 19 8 41 20 54l56 69c12 13 30 23 49 23h500c20 0 37-10 49-23z" horiz-adv-x="1000" />

<glyph glyph-name="next_week" unicode="&#xe89b;" d="M459 58l166 168-166 166-43-41 125-125-125-125z m-43 562v-82h168v82h-168z m168 84c46 0 82-38 82-84v-82h168c45 0 82-39 82-84v-459c0-45-37-82-82-82h-668c-45 0-82 37-82 82v459c0 45 37 84 82 84h168v82c0 45 37 84 82 84h168z" horiz-adv-x="1000" />

<glyph glyph-name="weekend" unicode="&#xe89c;" d="M750 620c45 0 84-37 84-82v-90c-49-17-84-62-84-117v-86h-500v86c0 55-35 100-84 117v90c0 45 39 82 84 82h500z m125-207c45 0 84-39 84-84v-209c0-45-39-82-84-82h-750c-45 0-84 37-84 82v209c0 45 39 84 84 84s84-39 84-84v-125h582v125c0 45 39 84 84 84z" horiz-adv-x="1000" />

<glyph glyph-name="delete_sweep" unicode="&#xe89d;" d="M584 620v-82h-500v82h125l41 43h166l43-43h125z m-459-541v416h416v-416c0-45-37-84-82-84h-250c-45 0-84 39-84 84z m500 250h250v-84h-250v84z m0 166h291v-82h-291v82z m0-332h166v-84h-166v84z" horiz-adv-x="1000" />

<glyph glyph-name="low_priority" unicode="&#xe89e;" d="M84 351c0 148 121 269 270 269h146v-82h-146c-104 0-188-84-188-187s84-188 188-188h21v82l125-125-125-125v84h-21c-149 0-270 123-270 272z m500-188h332v-84h-332v84z m0 229h332v-84h-332v84z m0 228h332v-82h-332v82z" horiz-adv-x="1000" />

<glyph glyph-name="access_alarms" unicode="&#xe89f;" d="M500-5c162 0 291 131 291 293s-129 291-291 291-291-129-291-291 129-293 291-293z m0 668c209 0 375-166 375-375s-166-375-375-375-375 166-375 375 166 375 375 375z m22-168v-220l166-100-34-51-195 121v250h63z m-192 192l-193-159-53 63 191 158z m586-96l-53-63-193 164 55 63z" horiz-adv-x="1000" />

<glyph glyph-name="airplanemode_inactive" unicode="&#xe8a0;" d="M125 610l53 53 656-656-53-53-240 238v-154l84-62v-63l-146 41-145-41v63l82 62v229l-332-104v82l248 156z m416-156l334-209v-82l-133 41-326 326v153c0 35 27 62 63 62s62-27 62-62v-229z" horiz-adv-x="1000" />

<glyph glyph-name="battery_alert" unicode="&#xe8a1;" d="M541 245v209h-82v-209h82z m0-166v84h-82v-84h82z m111 584c32 0 57-25 57-56v-639c0-31-25-55-57-55h-304c-32 0-57 24-57 55v639c0 31 25 56 57 56h68v82h168v-82h68z" horiz-adv-x="1000" />

<glyph glyph-name="battery_charging_full" unicode="&#xe8a2;" d="M459-5l166 313h-84v230l-166-312h84v-231z m193 668c32 0 57-25 57-56v-639c0-31-25-55-57-55h-304c-32 0-57 24-57 55v639c0 31 25 56 57 56h68v82h168v-82h68z" horiz-adv-x="1000" />

<glyph glyph-name="battery_std" unicode="&#xe8a3;" d="M652 663c32 0 57-25 57-56v-639c0-31-25-55-57-55h-304c-32 0-57 24-57 55v639c0 31 25 56 57 56h68v82h168v-82h68z" horiz-adv-x="1000" />

<glyph glyph-name="battery_unknown" unicode="&#xe8a4;" d="M596 300c17 17 29 43 29 70 0 69-57 125-125 125s-125-56-125-125h63c0 35 27 63 62 63s63-28 63-63c0-17-6-31-18-43l-39-39c-20-19-39-49-39-84h66c0 20 16 47 35 67 12 11 28 29 28 29z m-57-219v80h-78v-80h78z m113 582c32 0 57-25 57-56v-639c0-31-25-55-57-55h-304c-32 0-57 24-57 55v639c0 31 25 56 57 56h68v82h168v-82h68z" horiz-adv-x="1000" />

<glyph glyph-name="bluetooth1" unicode="&#xe8a5;" d="M619 150l-78 80v-159z m-78 437v-158l78 80z m197-78l-179-180 179-179-238-237h-41v317l-191-192-59 59 232 232-232 233 59 58 191-191v316h41z" horiz-adv-x="1000" />

<glyph glyph-name="bluetooth_connected" unicode="&#xe8a6;" d="M791 413l84-84-84-84-82 84z m-172-263l-78 80v-159z m-78 437v-158l78 80z m197-78l-179-180 179-179-238-237h-41v317l-191-192-59 59 232 232-232 233 59 58 191-191v316h41z m-447-180l-82-84-84 84 84 84z" horiz-adv-x="1000" />

<glyph glyph-name="bluetooth_disabled" unicode="&#xe8a7;" d="M541 71l78 79-78 80v-159z m-316 592l609-609-59-59-95 96-180-178h-41v317l-191-192-59 59 232 232-275 276z m316-76v-135l-82 84v209h41l238-236-127-127-58 59 66 68z" horiz-adv-x="1000" />

<glyph glyph-name="bluetooth_searching" unicode="&#xe8a8;" d="M537 150l-78 80v-159z m-78 437v-158l78 80z m195-78l-179-180 179-179-238-237h-41v317l-191-192-59 59 232 232-232 233 59 58 191-191v316h41z m161 41c39-63 60-139 60-217 0-82-23-156-64-221l-49 49c25 51 41 108 41 168s-16 117-41 168z m-221-221l96 96c11-29 19-63 19-96s-8-68-19-97z" horiz-adv-x="1000" />

<glyph glyph-name="brightness_auto" unicode="&#xe8a9;" d="M596 163h80l-135 375h-82l-135-375h80l30 82h132z m238 305l137-139-137-138v-196h-195l-139-137-139 137h-195v196l-137 138 137 139v195h195l139 137 139-137h195v-195z m-383-166l49 152 49-152h-98z" horiz-adv-x="1000" />

<glyph glyph-name="brightness_high" unicode="&#xe8aa;" d="M500 495c92 0 166-74 166-166s-74-166-166-166-166 74-166 166 74 166 166 166z m0-416c139 0 250 112 250 250s-111 250-250 250-250-111-250-250 111-250 250-250z m334 389l137-139-137-138v-196h-195l-139-137-139 137h-195v196l-137 138 137 139v195h195l139 137 139-137h195v-195z" horiz-adv-x="1000" />

<glyph glyph-name="brightness_low" unicode="&#xe8ab;" d="M500 79c139 0 250 112 250 250s-111 250-250 250-250-111-250-250 111-250 250-250z m334 112v-196h-195l-139-137-139 137h-195v196l-137 138 137 139v195h195l139 137 139-137h195v-195l137-139z" horiz-adv-x="1000" />

<glyph glyph-name="brightness_medium" unicode="&#xe8ac;" d="M500 79c139 0 250 112 250 250s-111 250-250 250v-500z m334 112v-196h-195l-139-137-139 137h-195v196l-137 138 137 139v195h195l139 137 139-137h195v-195l137-139z" horiz-adv-x="1000" />

<glyph glyph-name="data_usage" unicode="&#xe8ad;" d="M500 38c92 0 174 43 227 110l109-65c-76-103-197-170-336-170-230 0-416 186-416 416 0 217 164 393 375 414v-125c-141-19-250-142-250-289 0-162 129-291 291-291z m41 705c211-21 375-197 375-414 0-60-12-119-35-170l-109 65c11 33 19 68 19 105 0 147-109 270-250 289v125z" horiz-adv-x="1000" />

<glyph glyph-name="developer_mode" unicode="&#xe8ae;" d="M709 38v82h82v-166c0-45-37-84-82-84h-418c-45 0-82 39-82 84v166h82v-82h418z m-293 158l-59-58-191 191 191 192 59-59-131-133z m227-58l-59 58 131 133-131 133 59 59 191-192z m-352 482v-82h-82v166c0 45 37 84 82 84l418-2c45 0 82-37 82-82v-166h-82v82h-418z" horiz-adv-x="1000" />

<glyph glyph-name="dvr" unicode="&#xe8af;" d="M291 329v-84h-82v84h82z m0 166v-82h-82v82h82z m500-166v-84h-457v84h457z m0 166v-82h-457v82h457z m84-375v500h-750v-500h750z m0 584c45 0 84-39 84-84l-2-500c0-45-37-82-82-82h-209v-84h-332v84h-209c-45 0-84 37-84 82v500c0 45 39 84 84 84h750z" horiz-adv-x="1000" />

<glyph glyph-name="location_disabled" unicode="&#xe8b0;" d="M678 99l-408 408c-38-49-61-111-61-178 0-162 129-291 291-291 66 0 129 24 178 61z m-553 552l53 53 697-697-53-53-86 86c-54-45-121-76-195-84v-86h-82v86c-174 20-312 158-332 332h-86v82h86c8 74 39 141 84 196z m748-281h86v-82h-86c-6-47-19-94-41-133l-62 63c13 33 21 72 21 111 0 162-129 291-291 291-39 0-78-8-111-21l-63 62c41 22 86 35 133 41v86h82v-86c174-19 313-158 332-332z" horiz-adv-x="1000" />

<glyph glyph-name="location_searching" unicode="&#xe8b1;" d="M500 38c162 0 291 129 291 291s-129 291-291 291-291-129-291-291 129-291 291-291z m373 332h86v-82h-86c-19-174-158-312-332-332v-86h-82v86c-174 20-312 158-332 332h-86v82h86c20 174 158 313 332 332v86h82v-86c174-19 313-158 332-332z" horiz-adv-x="1000" />

<glyph glyph-name="graphic_eq" unicode="&#xe8b2;" d="M791 413h84v-168h-84v168z m-166-334v500h84v-500h-84z m-500 166v168h84v-168h-84z m334-332v832h82v-832h-82z m-168 166v500h84v-500h-84z" horiz-adv-x="1000" />

<glyph glyph-name="network_cell" unicode="&#xe8b3;" d="M916-87h-832l832 832v-832z" horiz-adv-x="1000" />

<glyph glyph-name="network_wifi" unicode="&#xe8b4;" d="M852 373c1 0 1 0 2-1l-354-437-353 437c0 1 0 1 1 1l-132 165c19 14 205 166 484 166s465-152 484-166z" horiz-adv-x="1000" />

<glyph glyph-name="nfc" unicode="&#xe8b5;" d="M750 579v-500h-500v500h166v-84h-82v-332h332v332h-125v-94c25-13 43-41 43-72 0-45-39-84-84-84s-84 39-84 84c0 31 18 59 43 72v94c0 45 37 84 82 84h209z m84-584v668h-668v-668h668z m0 750c45 0 82-37 82-82v-668c0-45-37-82-82-82h-668c-45 0-82 37-82 82v668c0 45 37 82 82 82h668z" horiz-adv-x="1000" />

<glyph glyph-name="wallpaper" unicode="&#xe8b6;" d="M166 288v-293h293v-82h-293c-45 0-82 37-82 82v293h82z m668-293v293h82v-293c0-45-37-82-82-82h-293v82h293z m0 750c45 0 82-37 82-82v-293h-82v293h-293v82h293z m-125-269c0-35-27-63-62-63s-63 28-63 63 27 62 63 62 62-27 62-62z m-293-188l125-154 84 111 125-166h-500z m-250 375v-293h-82v293c0 45 37 82 82 82h293v-82h-293z" horiz-adv-x="1000" />

<glyph glyph-name="widgets" unicode="&#xe8b7;" d="M693 759l237-236-237-235h182v-334h-334v334h152l-234 235v-153h-334v334h334v-181z m-568-805v334h334v-334h-334z" horiz-adv-x="1000" />

<glyph glyph-name="screen_lock_landscape" unicode="&#xe8b8;" d="M449 413v-43h102v43c0 28-24 49-51 49s-51-21-51-49z m-33-250c-23 0-41 18-41 41v125c0 24 18 41 41 41v43c0 45 37 82 84 82 45 0 84-35 84-82v-43c23 0 41-17 41-41v-125c0-23-18-41-41-41h-168z m375-43v418h-582v-418h582z m84 500c45 0 84-37 84-82v-418c0-45-39-82-84-82h-750c-45 0-84 37-84 82v418c0 45 39 82 84 82h750z" horiz-adv-x="1000" />

<glyph glyph-name="screen_lock_portrait" unicode="&#xe8b9;" d="M709 38v582h-418v-582h418z m0 750c45 0 82-39 82-84v-750c0-45-37-84-82-84h-418c-45 0-82 39-82 84v750c0 45 37 84 82 84h418z m-260-375v-43h102v43c0 28-24 49-51 49s-51-21-51-49z m-33-250c-23 0-41 18-41 41v125c0 24 18 41 41 41v43c0 45 37 82 84 82 45 0 84-35 84-82v-43c23 0 41-17 41-41v-125c0-23-18-41-41-41h-168z" horiz-adv-x="1000" />

<glyph glyph-name="screen_lock_rotation" unicode="&#xe8ba;" d="M699 726v-22h143v22c0 39-31 70-70 70s-73-31-73-70z m-33-272c-23 0-41 18-41 41v168c0 24 18 41 41 41v22c0 56 49 103 106 103s103-47 103-103v-22c23 0 41-17 41-41v-168c0-23-18-41-41-41h-209z m-312-478l54 54 158-158-27-2c-262 0-476 203-498 459h63c15-156 113-289 250-353z m615 322c25-23 25-64 0-90l-266-264c-23-25-62-25-88 0l-500 500c-25 24-25 63 0 88l264 266c23 25 64 25 90 0l101-102-58-58-88 86-236-235 472-472 235 236-92 92 58 58z" horiz-adv-x="1000" />

<glyph glyph-name="screen_rotation" unicode="&#xe8bb;" d="M313-65l56 54 158-158-27-2c-262 0-477 203-498 459h63c15-156 111-289 248-353z m304 11l266 266-500 500-266-266z m-191 811l502-502c25-23 25-63 0-88l-266-266c-23-25-62-25-88 0l-502 502c-25 24-25 63 0 88l266 266c23 25 62 25 88 0z m262-33l-57-55-158 158 27 2c262 0 477-203 498-459h-62c-16 156-112 289-248 354z" horiz-adv-x="1000" />

<glyph glyph-name="sd_storage" unicode="&#xe8bc;" d="M750 495v168h-84v-168h84z m-125 0v168h-84v-168h84z m-125 0v168h-84v-168h84z m250 250c45 0 84-37 84-82v-668c0-45-39-82-84-82h-500c-45 0-84 37-84 82l2 500 248 250h334z" horiz-adv-x="1000" />

<glyph glyph-name="settings_system_daydream" unicode="&#xe8bd;" d="M875 36v586h-750v-586h750z m0 668c45 0 84-39 84-84v-582c0-45-39-84-84-84h-750c-45 0-84 39-84 84v582c0 45 39 84 84 84h750z m-500-541c-68 0-125 57-125 125 0 65 49 117 111 123h8c24 49 72 84 131 84 74 0 135-54 145-125h2c56 0 103-47 103-103s-47-104-103-104h-272z" horiz-adv-x="1000" />

<glyph glyph-name="signal_cellular_4_bar" unicode="&#xe8be;" d="M84-87l832 832v-832h-832z" horiz-adv-x="1000" />

<glyph glyph-name="signal_cellular_connected_no_internet_4_bar" unicode="&#xe8bf;" d="M84-87l832 832v-250h-166v-582h-666z m750 0v82h82v-82h-82z m0 166v334h82v-334h-82z" horiz-adv-x="1000" />

<glyph glyph-name="signal_cellular_no_sim" unicode="&#xe8c0;" d="M152 667l729-727-55-54-78 80c-12-6-25-12-39-12h-418c-45 0-82 39-82 84v467l-109 109z m639-47v-486l-473 473 98 97h293c45 0 82-39 82-84z" horiz-adv-x="1000" />

<glyph glyph-name="signal_cellular_null" unicode="&#xe8c1;" d="M916 745v-832h-832z m-82-201l-549-549h549v549z" horiz-adv-x="1000" />

<glyph glyph-name="signal_cellular_off" unicode="&#xe8c2;" d="M199 642l717-719-53-53-82 84h-740l369 369-263 266z m676 146v-717l-357 358z" horiz-adv-x="1000" />

<glyph glyph-name="signal_wifi_4_bar" unicode="&#xe8c3;" d="M500-65l-484 603c19 14 205 166 484 166s465-152 484-166z" horiz-adv-x="1000" />

<glyph glyph-name="signal_wifi_4_bar_lock" unicode="&#xe8c4;" d="M647 226v-110l-147-183-482 605c17 12 203 166 482 166s465-154 482-166l-85-109c-12 4-26 4-43 4-118 0-207-90-207-207z m269-63v63c0 33-29 62-62 62s-63-29-63-62v-63h125z m43 0c22 0 41-21 41-43v-166c0-21-19-41-41-41h-209c-21 0-41 20-41 41v166c0 22 20 43 41 43v63c0 58 45 103 104 103s105-45 105-103v-63z" horiz-adv-x="1000" />

<glyph glyph-name="signal_wifi_off" unicode="&#xe8c5;" d="M137 769c239-240 479-478 717-719l-53-53-139 139-162-201-484 603c9 8 62 51 152 92l-84 86z m847-231l-226-283-432 430c53 11 112 19 174 19 279 0 465-152 484-166z" horiz-adv-x="1000" />

<glyph glyph-name="storage" unicode="&#xe8c6;" d="M166 370v-82h84v82h-84z m-82-125v168h832v-168h-832z m166 293v82h-84v-82h84z m-166 125h832v-168h-832v168z m82-543v-82h84v82h-84z m-82-125v168h832v-168h-832z" horiz-adv-x="1000" />

<glyph glyph-name="usb1" unicode="&#xe8c7;" d="M625 538h166v-168h-41v-82c0-47-37-84-84-84h-125v-127c29-15 51-47 51-82 0-51-41-92-92-92s-92 41-92 92c0 35 22 67 51 82v127h-125c-47 0-84 37-84 84v86c-29 16-51 45-51 80 0 51 41 92 92 92s92-41 92-92c0-35-20-64-49-80v-86h125v332h-84l125 168 125-168h-84v-332h125v82h-41v168z" horiz-adv-x="1000" />

<glyph glyph-name="wifi_lock" unicode="&#xe8c8;" d="M916 163v63c0 35-27 62-62 62s-63-27-63-62v-63h125z m43 0c23 0 41-19 41-43v-166c0-23-18-41-41-41h-209c-23 0-41 18-41 41v166c0 24 18 43 41 43v63c0 56 47 103 104 103s105-47 105-103v-63z m-105 270c-116 0-207-92-207-207v-119l-147-194-500 666c139 106 313 166 500 166s361-60 500-166l-111-148c-12 2-24 2-35 2z" horiz-adv-x="1000" />

<glyph glyph-name="wifi_tethering" unicode="&#xe8c9;" d="M500 704c231 0 416-185 416-416 0-154-82-289-207-361l-43 72c100 59 168 166 168 289 0 184-150 332-334 332s-334-148-334-332c0-123 66-230 166-289l-41-72c-125 72-207 207-207 361 0 231 186 416 416 416z m250-416c0-92-51-174-125-217l-41 73c49 29 82 82 82 144 0 92-74 166-166 166s-166-74-166-166c0-62 33-115 82-144l-41-73c-74 43-125 125-125 217 0 139 111 250 250 250s250-111 250-250z m-250 82c45 0 84-37 84-82s-39-84-84-84-84 39-84 84 39 82 84 82z" horiz-adv-x="1000" />

<glyph glyph-name="attach_file" unicode="&#xe8ca;" d="M688 579h62v-478c0-127-102-231-228-231s-231 104-231 231v519c0 92 76 168 168 168s166-76 166-168v-437c0-57-47-104-103-104s-106 47-106 104v396h63v-396c0-24 19-41 43-41s41 17 41 41v437c0 57-47 106-104 106s-105-49-105-106v-519c0-92 76-168 168-168s166 76 166 168v478z" horiz-adv-x="1000" />

<glyph glyph-name="attach_money" unicode="&#xe8cb;" d="M492 374c94-25 196-62 196-182 0-85-65-132-147-148v-90h-125v90c-80 18-146 68-152 160h92c3-49 37-88 123-88 91 0 113 45 113 75 0 39-22 76-125 101-117 27-195 76-195 172 0 80 64 133 144 150v90h125v-92c88-21 133-86 135-158h-92c-2 53-31 88-105 88-71 0-112-33-112-78 0-39 31-64 125-90z" horiz-adv-x="1000" />

<glyph glyph-name="border_all" unicode="&#xe8cc;" d="M791 370v250h-250v-250h250z m0-332v250h-250v-250h250z m-332 332v250h-250v-250h250z m0-332v250h-250v-250h250z m-334 666h750v-750h-750v750z" horiz-adv-x="1000" />

<glyph glyph-name="border_bottom" unicode="&#xe8cd;" d="M209 204v-84h-84v84h84z m-84-250v84h750v-84h-750z m84 416v-82h-84v82h84z m582 84v84h84v-84h-84z m0 250h84v-84h-84v84z m-582-166v-84h-84v84h84z m582-418v84h84v-84h-84z m0 168v82h84v-82h-84z m-82 416v-84h-84v84h84z m-168 0v-84h-82v84h82z m168-334v-82h-84v82h84z m-168 168v-84h-82v84h82z m-332 166v-84h-84v84h84z m332-334v-82h-82v82h82z m-166 334v-84h-84v84h84z m166-500v-84h-82v84h82z m-166 166v-82h-84v82h84z" horiz-adv-x="1000" />

<glyph glyph-name="border_clear" unicode="&#xe8ce;" d="M625 620v84h84v-84h-84z m0-332v82h84v-82h-84z m0-334v84h84v-84h-84z m-166 666v84h82v-84h-82z m332 84h84v-84h-84v84z m-332-250v84h82v-84h-82z m332 0v84h84v-84h-84z m0-500v84h84v-84h-84z m0 334v82h84v-82h-84z m0-168v84h84v-84h-84z m-332 168v82h82v-82h-82z m-334 332v84h84v-84h-84z m0-166v84h84v-84h-84z m0-166v82h84v-82h-84z m0-168v84h84v-84h-84z m0-166v84h84v-84h-84z m334 0v84h82v-84h-82z m0 166v84h82v-84h-82z m-168-166v84h84v-84h-84z m0 334v82h84v-82h-84z m0 332v84h84v-84h-84z" horiz-adv-x="1000" />

<glyph glyph-name="border_color" unicode="&#xe8cf;" d="M0-5h1000v-166h-1000v166z m863 666l-82-82-156 156 82 82c16 16 43 16 59 0l97-97c16-16 16-43 0-59z m-123-123l-418-418h-156v156l418 418z" horiz-adv-x="1000" />

<glyph glyph-name="border_horizontal" unicode="&#xe8d0;" d="M791-46v84h84v-84h-84z m-166 0v84h84v-84h-84z m-166 166v84h82v-84h-82z m332 334v84h84v-84h-84z m0 250h84v-84h-84v84z m-666-416v82h750v-82h-750z m334-334v84h82v-84h-82z m332 166v84h84v-84h-84z m-250 584v-84h-82v84h82z m0-166v-84h-82v84h82z m168 166v-84h-84v84h84z m-334 0v-84h-84v84h84z m-166 0v-84h-84v84h84z m82-750v84h84v-84h-84z m-166 166v84h84v-84h-84z m84 418v-84h-84v84h84z m-84-584v84h84v-84h-84z" horiz-adv-x="1000" />

<glyph glyph-name="border_inner" unicode="&#xe8d1;" d="M791 120v84h84v-84h-84z m0-166v84h84v-84h-84z m-250 750v-334h334v-82h-334v-334h-82v334h-334v82h334v334h82z m84-750v84h84v-84h-84z m166 750h84v-84h-84v84z m0-250v84h84v-84h-84z m-82 250v-84h-84v84h84z m-500 0v-84h-84v84h84z m166 0v-84h-84v84h84z m-250-584v84h84v-84h-84z m84 418v-84h-84v84h84z m82-584v84h84v-84h-84z m-166 0v84h84v-84h-84z" horiz-adv-x="1000" />

<glyph glyph-name="border_left" unicode="&#xe8d2;" d="M625 620v84h84v-84h-84z m0-332v82h84v-82h-84z m166-334v84h84v-84h-84z m0 334v82h84v-82h-84z m0 416h84v-84h-84v84z m0-584v84h84v-84h-84z m-166-166v84h84v-84h-84z m166 500v84h84v-84h-84z m-666-500v750h84v-750h-84z m166 334v82h84v-82h-84z m0 332v84h84v-84h-84z m0-666v84h84v-84h-84z m168 334v82h82v-82h-82z m0 166v84h82v-84h-82z m0 166v84h82v-84h-82z m0-500v84h82v-84h-82z m0-166v84h82v-84h-82z" horiz-adv-x="1000" />

<glyph glyph-name="border_outer" unicode="&#xe8d3;" d="M375 370v-82h-84v82h84z m166-166v-84h-82v84h82z m250-166v582h-582v-582h582z m-666 666h750v-750h-750v750z m584-334v-82h-84v82h84z m-168 0v-82h-82v82h82z m0 168v-84h-82v84h82z" horiz-adv-x="1000" />

<glyph glyph-name="border_right" unicode="&#xe8d4;" d="M459 454v84h82v-84h-82z m0 166v84h82v-84h-82z m0-332v82h82v-82h-82z m166 332v84h84v-84h-84z m0-666v84h84v-84h-84z m166 750h84v-750h-84v750z m-166-416v82h84v-82h-84z m-166-168v84h82v-84h-82z m-334 334v84h84v-84h-84z m0-334v84h84v-84h-84z m0 168v82h84v-82h-84z m334-334v84h82v-84h-82z m-334 0v84h84v-84h-84z m166 334v82h84v-82h-84z m0 332v84h84v-84h-84z m-166 0v84h84v-84h-84z m166-666v84h84v-84h-84z" horiz-adv-x="1000" />

<glyph glyph-name="border_style" unicode="&#xe8d5;" d="M791 454v84h84v-84h-84z m-666 250h750v-84h-666v-666h-84v750z m666-416v82h84v-82h-84z m0-168v84h84v-84h-84z m-332-166v84h82v-84h-82z m-168 0v84h84v-84h-84z m500 0v84h84v-84h-84z m-166 0v84h84v-84h-84z" horiz-adv-x="1000" />

<glyph glyph-name="border_top" unicode="&#xe8d6;" d="M625 288v82h84v-82h-84z m166-334v84h84v-84h-84z m-332 500v84h82v-84h-82z m166-500v84h84v-84h-84z m166 166v84h84v-84h-84z m-666 584h750v-84h-750v84z m666-416v82h84v-82h-84z m0 166v84h84v-84h-84z m-332-334v84h82v-84h-82z m-334 334v84h84v-84h-84z m0-166v82h84v-82h-84z m0-334v84h84v-84h-84z m0 166v84h84v-84h-84z m334-166v84h82v-84h-82z m0 334v82h82v-82h-82z m-168 0v82h84v-82h-84z m0-334v84h84v-84h-84z" horiz-adv-x="1000" />

<glyph glyph-name="border_vertical" unicode="&#xe8d7;" d="M625 288v82h84v-82h-84z m0-334v84h84v-84h-84z m0 666v84h84v-84h-84z m166-166v84h84v-84h-84z m0 250h84v-84h-84v84z m0-416v82h84v-82h-84z m0-334v84h84v-84h-84z m-332 0v750h82v-750h-82z m332 166v84h84v-84h-84z m-500 500v84h84v-84h-84z m-166-500v84h84v-84h-84z m0-166v84h84v-84h-84z m0 334v82h84v-82h-84z m166 0v82h84v-82h-84z m0-334v84h84v-84h-84z m-166 666v84h84v-84h-84z m0-166v84h84v-84h-84z" horiz-adv-x="1000" />

<glyph glyph-name="format_align_center" unicode="&#xe8d8;" d="M125 704h750v-84h-750v84z m166-166h418v-84h-418v84z m-166-250v82h750v-82h-750z m0-334v84h750v-84h-750z m166 250h418v-84h-418v84z" horiz-adv-x="1000" />

<glyph glyph-name="format_align_justify" unicode="&#xe8d9;" d="M125 704h750v-84h-750v84z m0-250v84h750v-84h-750z m0-166v82h750v-82h-750z m0-168v84h750v-84h-750z m0-166v84h750v-84h-750z" horiz-adv-x="1000" />

<glyph glyph-name="format_align_left" unicode="&#xe8da;" d="M125 704h750v-84h-750v84z m0-750v84h750v-84h-750z m0 334v82h750v-82h-750z m500 250v-84h-500v84h500z m0-334v-84h-500v84h500z" horiz-adv-x="1000" />

<glyph glyph-name="format_align_right" unicode="&#xe8db;" d="M125 704h750v-84h-750v84z m250-250v84h500v-84h-500z m-250-166v82h750v-82h-750z m250-168v84h500v-84h-500z m-250-166v84h750v-84h-750z" horiz-adv-x="1000" />

<glyph glyph-name="format_bold" unicode="&#xe8dc;" d="M563 183c35 0 62 27 62 62s-27 63-62 63h-147v-125h147z m-147 375v-125h125c35 0 63 27 63 62s-28 63-63 63h-125z m234-178c55-25 90-80 90-143 0-87-66-158-154-158h-295v584h262c94 0 166-74 166-168 0-43-28-88-69-115z" horiz-adv-x="1000" />

<glyph glyph-name="format_clear" unicode="&#xe8dd;" d="M250 620h584v-125h-242l-67-156-87 86 29 70h-100l-117 117v8z m-113 0l11-10 602-603-53-53-236 237-64-153h-125l101 240-289 289z" horiz-adv-x="1000" />

<glyph glyph-name="format_color_fill" unicode="&#xe8de;" d="M0-5h1000v-166h-1000v166z m791 356c0 0 84-92 84-147 0-45-39-84-84-84s-82 39-82 84c0 55 82 147 82 147z m-574 62h400l-201 199z m473 43c25-25 25-64 0-88l-229-228c-12-12-29-20-45-20s-31 8-43 20l-230 228c-26 24-26 63 0 88l214 215-99 100 60 58z" horiz-adv-x="1000" />

<glyph glyph-name="format_color_reset" unicode="&#xe8df;" d="M219 610l609-609-53-53-111 110c-45-39-101-63-164-63-139 0-250 112-250 250 0 51 23 112 55 172l-139 139z m531-365c0-19-2-37-6-54l-357 359c58 84 113 146 113 146s250-285 250-451z" horiz-adv-x="1000" />

<glyph glyph-name="format_color_text" unicode="&#xe8e0;" d="M400 329h200l-100 264z m59 375h82l229-584h-94l-45 125h-262l-47-125h-93z m-459-709h1000v-166h-1000v166z" horiz-adv-x="1000" />

<glyph glyph-name="format_indent_decrease" unicode="&#xe8e1;" d="M459 288v82h416v-82h-416z m0 166v84h416v-84h-416z m-334 250h750v-84h-750v84z m0-750v84h750v-84h-750z m0 375l166 166v-332z m334-209v84h416v-84h-416z" horiz-adv-x="1000" />

<glyph glyph-name="format_indent_increase" unicode="&#xe8e2;" d="M459 288v82h416v-82h-416z m0 166v84h416v-84h-416z m-334 250h750v-84h-750v84z m334-584v84h416v-84h-416z m-334 375l166-166-166-166v332z m0-541v84h750v-84h-750z" horiz-adv-x="1000" />

<glyph glyph-name="format_italic" unicode="&#xe8e3;" d="M416 663h334v-125h-117l-141-334h92v-125h-334v125h117l141 334h-92v125z" horiz-adv-x="1000" />

<glyph glyph-name="format_line_spacing" unicode="&#xe8e4;" d="M416 288v82h500v-82h-500z m0-250v82h500v-82h-500z m0 582h500v-82h-500v82z m-166-82v-418h104l-145-144-146 144h103v418h-103l146 145 145-145h-104z" horiz-adv-x="1000" />

<glyph glyph-name="format_list_bulleted" unicode="&#xe8e5;" d="M291 620h584v-82h-584v82z m0-332v82h584v-82h-584z m0-250v82h584v-82h-584z m-125 104c35 0 63-30 63-63s-30-62-63-62-62 29-62 62 27 63 62 63z m0 500c35 0 63-28 63-63s-28-62-63-62-62 27-62 62 27 63 62 63z m0-250c35 0 63-28 63-63s-28-62-63-62-62 27-62 62 27 63 62 63z" horiz-adv-x="1000" />

<glyph glyph-name="format_list_numbered" unicode="&#xe8e6;" d="M291 288v82h584v-82h-584z m0-250v82h584v-82h-584z m0 582h584v-82h-584v82z m-207-250v43h125v-39l-76-86h76v-43h-125v39l74 86h-74z m41 125v125h-41v43h82v-168h-41z m-41-375v43h125v-168h-125v43h82v20h-41v43h41v19h-82z" horiz-adv-x="1000" />

<glyph glyph-name="format_paint" unicode="&#xe8e7;" d="M750 663h125v-334h-334v-375c0-23-18-41-41-41h-84c-23 0-41 18-41 41v459h416v166h-41v-41c0-23-18-43-41-43h-500c-23 0-43 20-43 43v166c0 24 20 41 43 41h500c23 0 41-17 41-41v-41z" horiz-adv-x="1000" />

<glyph glyph-name="format_quote" unicode="&#xe8e8;" d="M584 120l82 168h-125v250h250v-250l-82-168h-125z m-334 0l84 168h-125v250h250v-250l-84-168h-125z" horiz-adv-x="1000" />

<glyph glyph-name="format_size" unicode="&#xe8e9;" d="M125 329v125h375v-125h-125v-291h-125v291h-125z m250 334h541v-125h-207v-500h-125v500h-209v125z" horiz-adv-x="1000" />

<glyph glyph-name="format_strikethrough" unicode="&#xe8ea;" d="M125 245v84h750v-84h-750z m84 418h582v-125h-207v-125h-168v125h-207v125z m207-625v125h168v-125h-168z" horiz-adv-x="1000" />

<glyph glyph-name="format_textdirection_l_to_r" unicode="&#xe8eb;" d="M875 79l-166-166v125h-500v82h500v125z m-500 334c-92 0-166 74-166 166s74 166 166 166h334v-82h-84v-459h-84v459h-82v-459h-84v209z" horiz-adv-x="1000" />

<glyph glyph-name="format_textdirection_r_to_l" unicode="&#xe8ec;" d="M334 120h500v-82h-500v-125l-168 166 168 166v-125z m82 293c-92 0-166 74-166 166s74 166 166 166h334v-82h-84v-459h-82v459h-84v-459h-84v209z" horiz-adv-x="1000" />

<glyph glyph-name="format_underlined" unicode="&#xe8ed;" d="M209 38h582v-84h-582v84z m291 82c-139 0-250 112-250 250v334h104v-334c0-80 66-144 146-144s147 64 147 144v334h103v-334c0-138-111-250-250-250z" horiz-adv-x="1000" />

<glyph glyph-name="functions" unicode="&#xe8ee;" d="M750 663v-125h-291l207-209-207-209h291v-125h-500v84l272 250-272 250v84h500z" horiz-adv-x="1000" />

<glyph glyph-name="insert_comment" unicode="&#xe8ef;" d="M750 495v84h-500v-84h500z m0-125v84h-500v-84h500z m0-125v84h-500v-84h500z m84 500c45 0 82-37 82-82v-750l-166 166h-584c-45 0-82 39-82 84v500c0 45 37 82 82 82h668z" horiz-adv-x="1000" />

<glyph glyph-name="insert_drive_file" unicode="&#xe8f0;" d="M541 454h231l-231 229v-229z m-291 291h334l250-250v-500c0-45-39-82-84-82h-500c-45 0-84 37-84 82l2 668c0 45 37 82 82 82z" horiz-adv-x="1000" />

<glyph glyph-name="insert_invitation" unicode="&#xe8f1;" d="M791 38v457h-582v-457h582z m-125 750h84v-84h41c45 0 84-39 84-84v-582c0-45-39-84-84-84h-582c-47 0-84 39-84 84v582c0 45 37 84 84 84h41v84h84v-84h332v84z m43-459v-209h-209v209h209z" horiz-adv-x="1000" />

<glyph glyph-name="merge_type" unicode="&#xe8f2;" d="M313 495l187 188 188-188h-147v-265l-250-250-59 58 227 225v232h-146z m396-515l-143 140 59 59 143-141z" horiz-adv-x="1000" />

<glyph glyph-name="mode_comment" unicode="&#xe8f3;" d="M916 663v-750l-166 166h-584c-45 0-82 39-82 84v500c0 45 37 82 82 82h668c45 0 82-37 82-82z" horiz-adv-x="1000" />

<glyph glyph-name="mode_edit" unicode="&#xe8f4;" d="M863 536l-76-76-156 156 76 76c16 16 43 16 59 0l97-97c16-16 16-43 0-59z m-738-426l461 461 156-156-461-461h-156v156z" horiz-adv-x="1000" />

<glyph glyph-name="publish" unicode="&#xe8f5;" d="M209 245l291 293 291-293h-166v-250h-250v250h-166z m0 418h582v-84h-582v84z" horiz-adv-x="1000" />

<glyph glyph-name="space_bar" unicode="&#xe8f6;" d="M750 454h84v-250h-668v250h84v-166h500v166z" horiz-adv-x="1000" />

<glyph glyph-name="strikethrough_s" unicode="&#xe8f7;" d="M391 282c0-74 47-105 121-105 51 0 95 21 95 70 0 47-24 57-58 74-6 2-16 6-24 8h-400v84h750v-84h-162c2-4 6-10 8-13 8-20 13-43 13-69 0-90-59-136-130-156-28-8-57-12-90-12-20 0-41 2-61 6-43 9-79 20-109 43-45 33-76 78-76 154h123z m216 235c0 60-38 88-99 88-44 0-78-15-92-43-4-8-6-18-6-28 0-19 12-37 31-50 16-10 32-20 59-30h-191c-2 4-6 6-8 10-12 20-16 43-16 70 0 56 29 97 63 123 40 28 93 47 162 47 68 0 125-19 162-53 34-30 60-74 60-134h-125z" horiz-adv-x="1000" />

<glyph glyph-name="vertical_align_bottom" unicode="&#xe8f8;" d="M166 38h668v-84h-668v84z m500 250l-166-168-166 168h125v416h82v-416h125z" horiz-adv-x="1000" />

<glyph glyph-name="vertical_align_center" unicode="&#xe8f9;" d="M166 370h668v-82h-668v82z m500 250l-166-166-166 166h125v168h82v-168h125z m-332-582l166 166 166-166h-125v-168h-82v168h-125z" horiz-adv-x="1000" />

<glyph glyph-name="vertical_align_top" unicode="&#xe8fa;" d="M166 704h668v-84h-668v84z m168-334l166 168 166-168h-125v-416h-82v416h-125z" horiz-adv-x="1000" />

<glyph glyph-name="wrap_text" unicode="&#xe8fb;" d="M709 370c92 0 166-74 166-166s-74-166-166-166h-84v-84l-125 125 125 125v-84h94c45 0 84 39 84 84s-39 84-84 84h-553v82h543z m125 250v-82h-668v82h668z m-668-582v82h250v-82h-250z" horiz-adv-x="1000" />

<glyph glyph-name="money_off" unicode="&#xe8fc;" d="M223 659l607-609-53-53-91 94c-26-24-63-39-102-47v-90h-125v90c-80 18-148 68-154 160h92c3-49 39-88 125-88 56 0 85 20 99 39l-146 145c-98 29-162 78-162 164l-143 143z m299-117c-26 0-47-4-65-12l-60 61c19 10 41 18 62 23v90h125v-92c88-21 131-86 133-158h-92c-2 53-29 88-103 88z" horiz-adv-x="1000" />

<glyph glyph-name="drag_handle" unicode="&#xe8fd;" d="M166 204v84h668v-84h-668z m668 250v-84h-668v84h668z" horiz-adv-x="1000" />

<glyph glyph-name="format_shapes" unicode="&#xe8fe;" d="M445 298h110l-55 160z m127-53h-146l-29-82h-69l143 375h58l141-375h-66z m219 375h84v84h-84v-84z m84-666v84h-84v-84h84z m-166 84v82h82v418h-82v82h-418v-82h-82v-418h82v-82h418z m-500-84v84h-84v-84h84z m-84 750v-84h84v84h-84z m834-166h-84v-418h84v-250h-250v84h-418v-84h-250v250h84v418h-84v250h250v-84h418v84h250v-250z" horiz-adv-x="1000" />

<glyph glyph-name="highlight" unicode="&#xe8ff;" d="M707 556l88 88 59-59-88-90z m-560 29l58 59 88-88-59-61z m312 160h82v-125h-82v125z m-209-500v209h500v-209l-125-125v-207h-250v207z" horiz-adv-x="1000" />

<glyph glyph-name="linear_scale" unicode="&#xe900;" d="M813 433c56 0 103-47 103-104s-47-103-103-103c-43 0-81 25-96 62h-121c-16-37-53-62-96-62s-80 25-96 62h-121c-15-37-52-62-95-62-57 0-104 47-104 103s47 104 104 104c43 0 80-26 95-63h121c16 37 53 63 96 63s80-26 96-63h121c15 37 53 63 96 63z" horiz-adv-x="1000" />

<glyph glyph-name="short_text" unicode="&#xe901;" d="M166 288h418v-84h-418v84z m0 166h668v-84h-668v84z" horiz-adv-x="1000" />

<glyph glyph-name="text_fields" unicode="&#xe902;" d="M897 454v-125h-125v-291h-125v291h-125v125h375z m-793 209h543v-125h-209v-500h-125v500h-209v125z" horiz-adv-x="1000" />

<glyph glyph-name="monetization_on" unicode="&#xe903;" d="M559 75c72 14 131 55 131 131 0 106-92 143-176 164s-110 45-110 80c0 39 37 69 100 69 66 0 90-32 92-78h82c-2 64-41 121-119 140v82h-112v-82c-72-15-129-60-129-133 0-86 71-127 174-152 94-21 112-55 112-90 0-25-18-66-100-66-76 0-107 35-111 78h-82c4-80 66-125 136-141v-82h112v80z m-59 670c231 0 416-185 416-416s-185-416-416-416-416 186-416 416 186 416 416 416z" horiz-adv-x="1000" />

<glyph glyph-name="title" unicode="&#xe904;" d="M209 663h582v-125h-228v-500h-125v500h-229v125z" horiz-adv-x="1000" />

<glyph glyph-name="attachment" unicode="&#xe905;" d="M84 308c0 127 102 230 229 230h437c92 0 166-76 166-168s-74-166-166-166h-353c-57 0-106 47-106 104s49 105 106 105h312v-84h-316c-24 0-24-41 0-41h357c45 0 84 37 84 82s-39 84-84 84h-437c-81 0-147-66-147-146s66-145 147-145h396v-84h-396c-127 0-229 102-229 229z" horiz-adv-x="1000" />

<glyph glyph-name="cloud_circle" unicode="&#xe906;" d="M688 163c56 0 103 47 103 104s-47 103-103 103h-22c0 92-74 168-166 168-78 0-143-54-160-127l-6 2c-68 0-125-56-125-125s57-125 125-125h354z m-188 582c231 0 416-185 416-416s-185-416-416-416-416 186-416 416 186 416 416 416z" horiz-adv-x="1000" />

<glyph glyph-name="cloud_done" unicode="&#xe907;" d="M416 120l275 276-58 58-217-215-86 86-58-58z m391 291c107-8 193-97 193-207 0-115-94-209-209-209h-541c-139 0-250 112-250 250 0 129 98 235 223 248 52 100 156 170 277 170 152 0 277-107 307-252z" horiz-adv-x="1000" />

<glyph glyph-name="cloud_download" unicode="&#xe908;" d="M709 288h-125v166h-168v-166h-125l209-209z m98 123c107-8 193-97 193-207 0-115-94-209-209-209h-541c-139 0-250 112-250 250 0 129 98 235 223 248 52 100 156 170 277 170 152 0 277-107 307-252z" horiz-adv-x="1000" />

<glyph glyph-name="cloud_off" unicode="&#xe909;" d="M322 413h-72c-92 0-166-76-166-168s74-166 166-166h406z m-197 197l53 53 697-697-53-53-84 82h-488c-139 0-250 112-250 250 0 135 107 244 240 250z m682-199c107-8 193-97 193-207 0-70-35-133-88-170l-60 61c39 21 64 62 64 109 0 69-57 125-125 125h-62v22c0 127-102 228-229 228-39 0-74-8-105-25l-63 60c49 32 106 49 168 49 152 0 277-107 307-252z" horiz-adv-x="1000" />

<glyph glyph-name="cloud_queue" unicode="&#xe90a;" d="M791 79c68 0 125 57 125 125s-57 125-125 125h-62v22c0 127-102 228-229 228-105 0-193-70-221-166h-29c-92 0-166-76-166-168s74-166 166-166h541z m16 332c107-8 193-97 193-207 0-115-94-209-209-209h-541c-139 0-250 112-250 250 0 129 98 235 223 248 52 100 156 170 277 170 152 0 277-107 307-252z" horiz-adv-x="1000" />

<glyph glyph-name="cloud_upload" unicode="&#xe90b;" d="M584 288h125l-209 207-209-207h125v-168h168v168z m223 123c107-8 193-97 193-207 0-115-94-209-209-209h-541c-139 0-250 112-250 250 0 129 98 235 223 248 52 100 156 170 277 170 152 0 277-107 307-252z" horiz-adv-x="1000" />

<glyph glyph-name="file_upload" unicode="&#xe90c;" d="M209 79h582v-84h-582v84z m166 84v250h-166l291 291 291-291h-166v-250h-250z" horiz-adv-x="1000" />

<glyph glyph-name="folder2" unicode="&#xe90d;" d="M416 663l84-84h334c45 0 82-39 82-84v-416c0-45-37-84-82-84h-668c-45 0-82 39-82 84v500c0 45 37 84 82 84h250z" horiz-adv-x="1000" />

<glyph glyph-name="folder_open" unicode="&#xe90e;" d="M834 79v416h-668v-416h668z m0 500c45 0 82-39 82-84v-416c0-45-37-84-82-84h-668c-45 0-82 39-82 84v500c0 45 37 84 82 84h250l84-84h334z" horiz-adv-x="1000" />

<glyph glyph-name="folder_shared" unicode="&#xe90f;" d="M791 120v43c0 55-111 82-166 82s-166-27-166-82v-43h332z m-166 334c-45 0-84-39-84-84s39-82 84-82 84 37 84 82-39 84-84 84z m209 125c45 0 82-39 82-84v-416c0-45-37-84-82-84h-668c-45 0-82 39-82 84v500c0 45 37 84 82 84h250l84-84h334z" horiz-adv-x="1000" />

<glyph glyph-name="create_new_folder" unicode="&#xe910;" d="M791 245v84h-125v125h-82v-125h-125v-84h125v-125h82v125h125z m43 334c47 0 82-37 82-84v-416c0-47-35-84-82-84h-668c-47 0-82 37-82 84v500c0 47 35 84 82 84h250l84-84h334z" horiz-adv-x="1000" />

<glyph glyph-name="cast" unicode="&#xe911;" d="M41 413c252 0 459-205 459-459h-84c0 207-168 375-375 375v84z m0-168c162 0 293-129 293-291h-84c0 115-94 209-209 209v82z m0-166c68 0 125-56 125-125h-125v125z m834 625c45 0 84-39 84-84v-582c0-45-39-84-84-84h-291v84h291v582h-750v-125h-84v125c0 45 39 84 84 84h750z" horiz-adv-x="1000" />

<glyph glyph-name="cast_connected" unicode="&#xe912;" d="M875 704c45 0 84-39 84-84v-582c0-45-39-84-84-84h-291v84h291v582h-750v-125h-84v125c0 45 39 84 84 84h750z m-834-291c252 0 459-205 459-459h-84c0 207-168 375-375 375v84z m750 125v-418h-234c-53 164-184 297-348 350v68h582z m-750-293c162 0 293-129 293-291h-84c0 115-94 209-209 209v82z m0-166c68 0 125-56 125-125h-125v125z" horiz-adv-x="1000" />

<glyph glyph-name="desktop_mac" unicode="&#xe913;" d="M875 245v418h-750v-418h750z m0 500c45 0 84-37 84-82v-500c0-45-39-84-84-84h-291l82-125v-41h-332v41l82 125h-291c-45 0-84 39-84 84v500c0 45 39 82 84 82h750z" horiz-adv-x="1000" />

<glyph glyph-name="desktop_windows" unicode="&#xe914;" d="M875 163v500h-750v-500h750z m0 582c45 0 84-37 84-82v-500c0-45-39-84-84-84h-291v-84h82v-82h-332v82h82v84h-291c-45 0-84 39-84 84v500c0 45 39 82 84 82h750z" horiz-adv-x="1000" />

<glyph glyph-name="developer_board" unicode="&#xe915;" d="M500 370h166v-250h-166v250z m-250 168h209v-209h-209v209z m250 0h166v-125h-166v125z m-250-250h209v-168h-209v168z m500-250v582h-584v-582h584z m166 416h-82v-84h82v-82h-82v-84h82v-84h-82v-82c0-45-39-84-84-84h-584c-45 0-82 39-82 84v582c0 45 37 84 82 84h584c45 0 84-39 84-84v-82h82v-84z" horiz-adv-x="1000" />

<glyph glyph-name="dock" unicode="&#xe916;" d="M666 204v416h-332v-416h332z m0 582c45 0 84-37 84-82v-584c0-45-39-82-84-82h-332c-45 0-84 37-84 82v584c0 45 39 84 84 84z m-332-916v84h332v-84h-332z" horiz-adv-x="1000" />

<glyph glyph-name="headset" unicode="&#xe917;" d="M500 788c207 0 375-168 375-375v-293c0-68-57-125-125-125h-125v334h166v84c0 162-129 291-291 291s-291-129-291-291v-84h166v-334h-125c-68 0-125 57-125 125v293c0 207 168 375 375 375z" horiz-adv-x="1000" />

<glyph glyph-name="headset_mic" unicode="&#xe918;" d="M500 788c207 0 375-168 375-375v-418c0-68-57-125-125-125h-250v84h291v41h-166v334h166v84c0 162-129 291-291 291s-291-129-291-291v-84h166v-334h-125c-68 0-125 57-125 125v293c0 207 168 375 375 375z" horiz-adv-x="1000" />

<glyph glyph-name="keyboard1" unicode="&#xe919;" d="M791 413v82h-82v-82h82z m0-125v82h-82v-82h82z m-125 125v82h-82v-82h82z m0-125v82h-82v-82h82z m0-168v84h-332v-84h332z m-375 293v82h-82v-82h82z m0-125v82h-82v-82h82z m43 82v-82h82v82h-82z m0 125v-82h82v82h-82z m125-125v-82h82v82h-82z m0 125v-82h82v82h-82z m375 125c45 0 82-37 82-82v-418c0-45-37-82-82-82h-668c-45 0-82 37-82 82v418c0 45 37 82 82 82h668z" horiz-adv-x="1000" />

<glyph glyph-name="keyboard_arrow_down" unicode="&#xe91a;" d="M309 503l191-191 191 191 59-59-250-250-250 250z" horiz-adv-x="1000" />

<glyph glyph-name="keyboard_arrow_left" unicode="&#xe91b;" d="M643 159l-59-58-250 250 250 250 59-59-192-191z" horiz-adv-x="1000" />

<glyph glyph-name="keyboard_arrow_right" unicode="&#xe91c;" d="M357 148l192 191-192 191 59 59 250-250-250-250z" horiz-adv-x="1000" />

<glyph glyph-name="keyboard_arrow_up" unicode="&#xe91d;" d="M309 187l-59 58 250 250 250-250-59-58-191 191z" horiz-adv-x="1000" />

<glyph glyph-name="keyboard_backspace" unicode="&#xe91e;" d="M875 370v-82h-590l149-150-59-59-250 250 250 250 59-58-149-151h590z" horiz-adv-x="1000" />

<glyph glyph-name="keyboard_capslock" unicode="&#xe91f;" d="M250 79v84h500v-84h-500z m250 401l-191-192-59 59 250 250 250-250-59-59z" horiz-adv-x="1000" />

<glyph glyph-name="keyboard_hide" unicode="&#xe920;" d="M500-130l-166 168h332z m291 625v84h-82v-84h82z m0-125v84h-82v-84h82z m-125 125v84h-82v-84h82z m0-125v84h-82v-84h82z m0-166v84h-332v-84h332z m-375 291v84h-82v-84h82z m0-125v84h-82v-84h82z m43 84v-84h82v84h-82z m0 125v-84h82v84h-82z m125-125v-84h82v84h-82z m0 125v-84h82v84h-82z m375 125c45 0 82-39 82-84v-416c0-45-37-84-82-84h-668c-45 0-82 39-82 84v416c0 45 37 84 82 84h668z" horiz-adv-x="1000" />

<glyph glyph-name="keyboard_return" unicode="&#xe921;" d="M791 538h84v-250h-633l151-150-59-59-250 250 250 250 59-58-151-151h549v168z" horiz-adv-x="1000" />

<glyph glyph-name="keyboard_tab" unicode="&#xe922;" d="M834 579h82v-500h-82v500z m-352-58l59 58 250-250-250-250-59 59 151 150h-592v82h592z" horiz-adv-x="1000" />

<glyph glyph-name="keyboard_voice" unicode="&#xe923;" d="M721 329h70c0-142-113-260-250-279v-137h-82v137c-137 19-250 137-250 279h70c0-125 106-213 221-213s221 88 221 213z m-221-125c-68 0-125 57-125 125v250c0 69 57 125 125 125s125-56 125-125v-250c0-68-57-125-125-125z" horiz-adv-x="1000" />

<glyph glyph-name="laptop1" unicode="&#xe924;" d="M166 579v-416h668v416h-668z m668-500h166v-84h-1000v84h166c-45 0-82 39-82 84v416c0 45 37 84 82 84h668c45 0 82-39 82-84v-416c0-45-37-84-82-84z" horiz-adv-x="1000" />

<glyph glyph-name="laptop_chromebook" unicode="&#xe925;" d="M834 204v416h-668v-416h668z m-250-125v41h-168v-41h168z m332 0h84v-84h-1000v84h84v625h832v-625z" horiz-adv-x="1000" />

<glyph glyph-name="laptop_mac" unicode="&#xe926;" d="M500 38c23 0 41 18 41 41s-18 41-41 41-41-17-41-41 18-41 41-41z m-334 582v-457h668v457h-668z m668-541h166c0-45-39-84-84-84h-832c-45 0-84 39-84 84h166c-45 0-82 39-82 84v457c0 45 37 84 82 84h668c45 0 82-39 82-84v-457c0-45-37-84-82-84z" horiz-adv-x="1000" />

<glyph glyph-name="laptop_windows" unicode="&#xe927;" d="M166 620v-416h668v416h-668z m668-541h166v-84h-1000v84h166v41c-45 0-82 39-82 84v416c0 45 37 84 82 84h668c45 0 82-39 82-84v-416c0-45-37-84-82-84v-41z" horiz-adv-x="1000" />

<glyph glyph-name="memory" unicode="&#xe928;" d="M709 120v418h-418v-418h418z m166 250h-84v-82h84v-84h-84v-84c0-45-37-82-82-82h-84v-84h-84v84h-82v-84h-84v84h-84c-45 0-82 37-82 82v84h-84v84h84v82h-84v84h84v84c0 45 37 82 82 82h84v84h84v-84h82v84h84v-84h84c45 0 82-37 82-82v-84h84v-84z m-334-82v82h-82v-82h82z m84 166v-250h-250v250h250z" horiz-adv-x="1000" />

<glyph glyph-name="mouse1" unicode="&#xe929;" d="M459 784v-330h-293c0 170 129 311 293 330z m-293-580v166h668v-166c0-183-150-334-334-334s-334 151-334 334z m375 580c164-19 293-160 293-330h-293v330z" horiz-adv-x="1000" />

<glyph glyph-name="phone_android" unicode="&#xe92a;" d="M719 79v584h-438v-584h438z m-135-125v41h-168v-41h168z m82 834c68 0 125-56 125-125v-668c0-68-57-125-125-125h-332c-68 0-125 57-125 125v668c0 69 57 125 125 125h332z" horiz-adv-x="1000" />

<glyph glyph-name="phone_iphone" unicode="&#xe92b;" d="M666 79v584h-375v-584h375z m-187-166c35 0 62 27 62 63s-27 62-62 62-63-27-63-62 27-63 63-63z m168 875c56 0 103-49 103-105v-707c0-57-47-106-103-106h-334c-57 0-104 49-104 106v707c0 56 47 105 104 105h334z" horiz-adv-x="1000" />

<glyph glyph-name="phonelink" unicode="&#xe92c;" d="M916 120v293h-166v-293h166z m43 375c23 0 41-17 41-41v-416c0-23-18-43-41-43h-250c-23 0-43 20-43 43v416c0 24 20 41 43 41h250z m-793 84v-459h418v-125h-584v125h84v459c0 45 37 84 82 84h750v-84h-750z" horiz-adv-x="1000" />

<glyph glyph-name="phonelink_off" unicode="&#xe92d;" d="M959 495c23 0 41-17 41-41v-416c0-23-18-43-41-43h-8l-125 125h90v293h-166v-217l-84 84v174c0 24 20 41 43 41h250z m-793 72v-447h447z m-86 194c270-270 539-541 809-811l-53-53-98 98h-738v125h84v459c0 20 8 39 20 53l-77 76z m836-182h-549l-84 84h633v-84z" horiz-adv-x="1000" />

<glyph glyph-name="router" unicode="&#xe92e;" d="M625 79v84h-84v-84h84z m-146 0v84h-82v-84h82z m-145 0v84h-84v-84h84z m457 209c45 0 84-39 84-84v-166c0-45-39-84-84-84h-582c-45 0-84 39-84 84v166c0 45 39 84 84 84h416v166h84v-166h82z m14 262l-33-33c-30 29-69 41-106 41s-74-12-103-41l-34 33c37 37 86 59 137 59s102-22 139-59z m37 33c-51 45-113 70-176 70s-123-25-174-70l-33 33c59 59 133 88 207 88s150-29 209-88z" horiz-adv-x="1000" />

<glyph glyph-name="scanner" unicode="&#xe92f;" d="M791 120v84h-416v-84h416z m-500 0v84h-82v-84h82z m533 264c30-8 51-43 51-76v-229c0-45-39-84-84-84h-582c-45 0-84 39-84 84v166c0 45 39 84 84 84h523l-585 213 29 78z" horiz-adv-x="1000" />

<glyph glyph-name="security" unicode="&#xe930;" d="M500 788l375-168v-250c0-230-160-447-375-500-215 53-375 270-375 500v250z m0-459v-373c154 49 270 201 291 373h-291z m0 0v367l-291-129v-238h291z" horiz-adv-x="1000" />

<glyph glyph-name="sim_card" unicode="&#xe931;" d="M709 204v166h-84v-166h84z m-168 84v82h-82v-82h82z m0-250v166h-82v-166h82z m-166 166v166h-84v-166h84z m334-166v82h-84v-82h84z m-334 0v82h-84v-82h84z m457 625l2-668c0-45-39-82-84-82h-500c-45 0-84 37-84 82v500l250 250h334c45 0 82-37 82-82z" horiz-adv-x="1000" />

<glyph glyph-name="speaker" unicode="&#xe932;" d="M500 329c68 0 125-56 125-125s-57-125-125-125-125 57-125 125 57 125 125 125z m0-334c115 0 209 94 209 209s-94 209-209 209-209-94-209-209 94-209 209-209z m0 668c-47 0-84-39-84-84s37-84 84-84c45 0 84 39 84 84s-39 84-84 84z m209 82c45 0 82-37 82-82v-668c0-45-37-82-82-82h-418c-45 0-82 37-82 82v668c0 45 37 82 82 82h418z" horiz-adv-x="1000" />

<glyph glyph-name="speaker_group" unicode="&#xe933;" d="M250 620v-666h416v-84h-416c-47 0-84 39-84 84v666h84z m229-312c0 56 48 105 105 105s104-49 104-105-47-104-104-104-105 47-105 104z m105-166c92 0 166 74 166 166s-74 168-166 168-168-76-168-168 76-166 168-166z m0 562c-45 0-84-37-84-84s39-82 84-82 82 35 82 82-37 84-82 84z m174 84c41 0 76-35 76-76v-600c0-41-35-74-76-74h-350c-41 0-74 33-74 74v600c0 41 33 76 74 76h350z" horiz-adv-x="1000" />

<glyph glyph-name="tablet1" unicode="&#xe934;" d="M791 79v500h-582v-500h582z m84 584c45 0 84-39 84-84l-2-500c0-45-37-84-82-84h-750c-45 0-84 39-84 84v500c0 45 39 84 84 84h750z" horiz-adv-x="1000" />

<glyph glyph-name="tablet_android" unicode="&#xe935;" d="M803 38v666h-606v-666h606z m-219-125v41h-168v-41h168z m166 916c68 0 125-56 125-125v-750c0-68-57-125-125-125h-500c-68 0-125 57-125 125v750c0 69 57 125 125 125h500z" horiz-adv-x="1000" />

<glyph glyph-name="tablet_mac" unicode="&#xe936;" d="M791 38v666h-625v-666h625z m-312-168c35 0 62 27 62 63s-27 62-62 62-63-27-63-62 27-63 63-63z m293 959c56 0 103-47 103-103v-793c0-57-47-104-103-104h-584c-57 0-104 47-104 104v793c0 56 47 103 104 103h584z" horiz-adv-x="1000" />

<glyph glyph-name="toys" unicode="&#xe937;" d="M500 329c0-125-103-228-228-228s-231 103-231 228h459z m0 0c-125 0-228 104-228 229s103 230 228 230v-459z m0 0c125 0 229-103 229-228s-104-231-229-231v459z m0 0c0 125 104 229 229 229s230-104 230-229h-459z" horiz-adv-x="1000" />

<glyph glyph-name="tv1" unicode="&#xe938;" d="M875 120v500h-750v-500h750z m0 584c45 0 84-39 84-84l-2-500c0-45-37-82-82-82h-209v-84h-332v84h-209c-45 0-84 37-84 82v500c0 45 39 84 84 84h750z" horiz-adv-x="1000" />

<glyph glyph-name="watch" unicode="&#xe939;" d="M250 329c0-138 111-250 250-250s250 112 250 250-111 250-250 250-250-111-250-250z m584 0c0-105-51-201-127-262l-41-238h-332l-41 238c-78 61-127 157-127 262s49 201 127 262l41 238h332l41-238c76-61 127-156 127-262z" horiz-adv-x="1000" />

<glyph glyph-name="device_hub" unicode="&#xe93a;" d="M709 163h166v-209h-209v127l-166 176-166-176v-127h-209v209h166l168 166v133c-49 18-84 63-84 117 0 69 57 125 125 125s125-56 125-125c0-54-35-99-84-117v-133z" horiz-adv-x="1000" />

<glyph glyph-name="power_input" unicode="&#xe93b;" d="M666 204v84h209v-84h-209z m-291 0v84h209v-84h-209z m-291 0v84h207v-84h-207z m0 250h791v-84h-791v84z" horiz-adv-x="1000" />

<glyph glyph-name="devices_other" unicode="&#xe93c;" d="M875 79v334h-166v-334h166z m41 416c22 0 43-19 43-41v-416c0-21-21-43-43-43h-250c-21 0-41 22-41 43v416c0 22 20 41 41 41h250z m-457-394c35 0 63 27 63 62s-28 63-63 63-62-28-62-63 27-62 62-62z m82 228v-74c25-23 43-55 43-92s-18-70-43-94v-74h-166v74c-25 24-41 57-41 94s16 69 41 92v74h166z m-416 250v-500h166v-84h-166c-45 0-84 39-84 84v500c0 45 39 84 84 84h750v-84h-750z" horiz-adv-x="1000" />

<glyph glyph-name="videogame_asset" unicode="&#xe93d;" d="M813 329c35 0 62 28 62 63s-27 62-62 62-63-27-63-62 27-63 63-63z m-166-125c35 0 62 28 62 63s-27 62-62 62-63-27-63-62 27-63 63-63z m-188 84v82h-125v125h-84v-125h-125v-82h125v-125h84v125h125z m416 291c45 0 84-39 84-84v-332c0-45-39-84-84-84h-750c-45 0-84 39-84 84v332c0 45 39 84 84 84h750z" horiz-adv-x="1000" />

<glyph glyph-name="adjust1" unicode="&#xe93e;" d="M625 329c0-68-57-125-125-125s-125 57-125 125 57 125 125 125 125-56 125-125z m-125-334c184 0 334 151 334 334s-150 334-334 334-334-150-334-334 150-334 334-334z m0 750c231 0 416-185 416-416s-185-416-416-416-416 186-416 416 186 416 416 416z" horiz-adv-x="1000" />

<glyph glyph-name="assistant" unicode="&#xe93f;" d="M578 292l172 78-172 78-78 172-78-172-172-78 172-78 78-172z m213 453c45 0 84-37 84-82v-584c0-45-39-84-84-84h-166l-125-125-125 125h-166c-45 0-84 39-84 84v584c0 45 39 82 84 82h582z" horiz-adv-x="1000" />

<glyph glyph-name="audiotrack" unicode="&#xe940;" d="M500 704h291v-125h-166v-459h-2c-10-94-90-166-185-166-104 0-188 84-188 188s84 187 188 187c21 0 43-4 62-12v387z" horiz-adv-x="1000" />

<glyph glyph-name="blur_circular" unicode="&#xe941;" d="M584 288c23 0 41-19 41-43s-18-41-41-41-43 18-43 41 20 43 43 43z m0-146c12 0 20-10 20-22s-8-19-20-19-21 8-21 19 9 22 21 22z m-84-147c184 0 334 151 334 334s-150 334-334 334-334-150-334-334 150-334 334-334z m0 750c231 0 416-185 416-416s-185-416-416-416-416 186-416 416 186 416 416 416z m209-312c12 0 20-8 20-20s-8-21-20-21-21 9-21 21 9 20 21 20z m0-166c12 0 20-10 20-22s-8-19-20-19-21 8-21 19 9 22 21 22z m-125 250c-12 0-21 9-21 21s9 20 21 20 20-8 20-20-8-21-20-21z m0-63c23 0 41-17 41-41s-18-43-41-43-43 20-43 43 20 41 43 41z m-168 63c-12 0-19 9-19 21s7 20 19 20 22-8 22-20-10-21-22-21z m-125-250c12 0 22-10 22-22s-10-19-22-19-19 8-19 19 7 22 19 22z m125-125c12 0 22-10 22-22s-10-19-22-19-19 8-19 19 7 22 19 22z m-125 291c12 0 22-8 22-20s-10-21-22-21-19 9-19 21 7 20 19 20z m125-145c24 0 43-19 43-43s-19-41-43-41-41 18-41 41 18 43 41 43z m0 166c24 0 43-17 43-41s-19-43-43-43-41 20-41 43 18 41 41 41z" horiz-adv-x="1000" />

<glyph glyph-name="blur_linear" unicode="&#xe942;" d="M541 120c-23 0-41 20-41 43s18 41 41 41 43-17 43-41-19-43-43-43z m0 168c-23 0-41 18-41 41s18 41 41 41 43-17 43-41-19-41-43-41z m0 166c-23 0-41 18-41 41s18 43 41 43 43-19 43-43-19-41-43-41z m168-146c-12 0-21 9-21 21s9 22 21 22 20-10 20-22-8-21-20-21z m0 168c-12 0-21 8-21 19s9 22 21 22 20-10 20-22-8-19-20-19z m-584 228h750v-84h-750v84z m584-562c-12 0-21 9-21 21s9 20 21 20 20-8 20-20-8-21-20-21z m-334-22c-23 0-41 20-41 43s18 41 41 41 41-17 41-41-18-43-41-43z m-166 147c-35 0-62 27-62 62s27 63 62 63 63-28 63-63-28-62-63-62z m0 166c-35 0-62 27-62 62s27 63 62 63 63-28 63-63-28-62-63-62z m-84-479v84h750v-84h-750z m250 500c-23 0-41 18-41 41s18 43 41 43 41-19 41-43-18-41-41-41z m0-166c-23 0-41 18-41 41s18 41 41 41 41-17 41-41-18-41-41-41z m-166-187c-35 0-62 27-62 62s27 63 62 63 63-28 63-63-28-62-63-62z" horiz-adv-x="1000" />

<glyph glyph-name="blur_off" unicode="&#xe943;" d="M125 267c12 0 22-10 22-22s-10-19-22-19-21 8-21 19 9 22 21 22z m125-147c23 0 41-17 41-41s-18-41-41-41-41 18-41 41 18 41 41 41z m166-144c12 0 22-10 22-22s-10-21-22-21-19 9-19 21 7 22 19 22z m-291 457c12 0 22-8 22-20s-10-21-22-21-21 9-21 21 9 20 21 20z m125-145c23 0 41-19 41-43s-18-41-41-41-41 18-41 41 18 43 41 43z m625-21c12 0 22-10 22-22s-10-19-22-19-21 8-21 19 9 22 21 22z m-459-147c24 0 43-17 43-41s-19-41-43-41-41 18-41 41 18 41 41 41z m-312 490l52 53 678-678-55-52-156 158c2-4 2-8 2-12 0-23-18-41-41-41s-43 18-43 41 20 41 43 41c4 0 8 0 12-2l-117 117c-4-29-32-52-63-52-35 0-62 27-62 62 0 31 23 59 52 63l-117 117c2-4 2-8 2-12 0-23-18-43-41-43s-41 20-41 43 18 41 41 41l12-2z m480-634c12 0 20-10 20-22s-8-21-20-21-21 9-21 21 9 22 21 22z m166 562c-23 0-41 18-41 41s18 41 41 41 41-17 41-41-18-41-41-41z m0-168c-23 0-41 20-41 43s18 41 41 41 41-17 41-41-18-43-41-43z m0-166c-23 0-41 18-41 41s18 43 41 43 41-19 41-43-18-41-41-41z m-334 334c-23 0-41 18-41 41s18 41 41 41 43-17 43-41-19-41-43-41z m459-146c-12 0-21 9-21 21s9 20 21 20 22-8 22-20-10-21-22-21z m-459 291c-12 0-19 9-19 21s7 22 19 22 22-10 22-22-10-21-22-21z m168 0c-12 0-21 9-21 21s9 22 21 22 20-10 20-22-8-21-20-21z m-10-332c-27 4-49 25-52 52v10c0 35 27 63 62 63s63-28 63-63-28-62-63-62h-10z m10 187c-23 0-43 18-43 41s20 41 43 41 41-17 41-41-18-41-41-41z" horiz-adv-x="1000" />

<glyph glyph-name="blur_on" unicode="&#xe944;" d="M584 476c35 0 63-28 63-63s-28-62-63-62-62 27-62 62 27 63 62 63z m0-168c35 0 63-28 63-63s-28-62-63-62-62 27-62 62 27 63 62 63z m-168-188c24 0 43-17 43-41s-19-41-43-41-41 18-41 41 18 41 41 41z m0 356c35 0 63-28 63-63s-28-62-63-62-62 27-62 62 27 63 62 63z m168-500c12 0 20-10 20-22s-8-21-20-21-21 9-21 21 9 22 21 22z m0 144c23 0 41-17 41-41s-18-41-41-41-43 18-43 41 20 41 43 41z m291 147c12 0 22-10 22-22s-10-19-22-19-21 8-21 19 9 22 21 22z m-125 353c23 0 41-17 41-41s-18-41-41-41-41 18-41 41 18 41 41 41z m0-166c23 0 41-17 41-41s-18-43-41-43-41 20-41 43 18 41 41 41z m0-334c23 0 41-17 41-41s-18-41-41-41-41 18-41 41 18 41 41 41z m0 168c23 0 41-19 41-43s-18-41-41-41-41 18-41 41 18 43 41 43z m-334 20c35 0 63-28 63-63s-28-62-63-62-62 27-62 62 27 63 62 63z m0 230c-23 0-41 18-41 41s18 41 41 41 43-17 43-41-19-41-43-41z m0 145c-12 0-19 9-19 21s7 22 19 22 22-10 22-22-10-21-22-21z m0-707c12 0 22-10 22-22s-10-21-22-21-19 9-19 21 7 22 19 22z m-291 291c12 0 22-10 22-22s-10-19-22-19-21 8-21 19 9 22 21 22z m459 416c-12 0-21 9-21 21s9 22 21 22 20-10 20-22-8-21-20-21z m0-145c-23 0-43 18-43 41s20 41 43 41 41-17 41-41-18-41-41-41z m291-146c-12 0-21 9-21 21s9 20 21 20 22-8 22-20-10-21-22-21z m-625 228c23 0 41-17 41-41s-18-41-41-41-41 18-41 41 18 41 41 41z m-125-187c12 0 22-8 22-20s-10-21-22-21-21 9-21 21 9 20 21 20z m125 21c23 0 41-17 41-41s-18-43-41-43-41 20-41 43 18 41 41 41z m0-334c23 0 41-17 41-41s-18-41-41-41-41 18-41 41 18 41 41 41z m0 168c23 0 41-19 41-43s-18-41-41-41-41 18-41 41 18 43 41 43z" horiz-adv-x="1000" />

<glyph glyph-name="brightness_1" unicode="&#xe945;" d="M84 329c0 231 186 416 416 416s416-185 416-416-185-416-416-416-416 186-416 416z" horiz-adv-x="1000" />

<glyph glyph-name="brightness_2" unicode="&#xe946;" d="M416 745c231 0 418-185 418-416s-187-416-418-416c-76 0-146 20-207 55 125 72 207 207 207 361s-82 289-207 362c61 35 131 54 207 54z" horiz-adv-x="1000" />

<glyph glyph-name="brightness_3" unicode="&#xe947;" d="M375 745c231 0 416-185 416-416s-185-416-416-416c-43 0-86 6-125 18 170 52 291 211 291 398s-121 346-291 399c39 11 82 17 125 17z" horiz-adv-x="1000" />

<glyph glyph-name="brightness_4" unicode="&#xe948;" d="M500 79c139 0 250 112 250 250s-111 250-250 250c-37 0-72-10-103-23 85-39 144-125 144-227s-59-187-144-226c31-14 66-24 103-24z m334 389l137-139-137-138v-196h-195l-139-137-139 137h-195v196l-137 138 137 139v195h195l139 137 139-137h195v-195z" horiz-adv-x="1000" />

<glyph glyph-name="broken_image" unicode="&#xe949;" d="M750 353l125-125v-190c0-45-39-84-84-84h-582c-45 0-84 39-84 84v274l125-125 166 168 168-168z m125 267v-273l-125 125-166-168-168 168-166-168-125 127v189c0 45 39 84 84 84h582c45 0 84-39 84-84z" horiz-adv-x="1000" />

<glyph glyph-name="brush1" unicode="&#xe94a;" d="M863 636c16-16 16-43 0-59l-373-373-115 115 373 373c16 16 43 16 59 0z m-572-391c68 0 125-56 125-125 0-92-74-166-166-166-62 0-127 33-166 84 35 0 82 28 82 82 0 69 57 125 125 125z" horiz-adv-x="1000" />

<glyph glyph-name="camera4" unicode="&#xe94b;" d="M410-77c67 116 134 233 201 348l153-264c-73-59-164-94-264-94-31 0-60 4-90 10z m-308 281h404l-154-264c-120 45-211 143-250 264z m91 406c71-121 141-243 211-365h-312c-6 28-8 55-8 84 0 110 41 207 109 281z m715-197c6-27 8-54 8-84 0-109-41-207-109-281l-200 344-11 21h312z m-10 41h-404l154 264c120-45 211-143 250-264z m-505-62l-4-4-153 263c73 59 164 94 264 94 31 0 61-4 90-10z" horiz-adv-x="1000" />

<glyph glyph-name="camera_front" unicode="&#xe94c;" d="M291 745v-437c0 70 139 105 209 105s209-35 209-105v437h-418z m418 84c45 0 82-39 82-84v-582c0-45-37-84-82-84h-293l125-125-125-125v84h-207v82h207v84h-125c-45 0-82 39-82 84v582c0 45 37 84 82 84h418z m-209-334c-45 0-82 39-82 84s37 84 82 84 84-39 84-84-39-84-84-84z m84-500h207v-82h-207v82z" horiz-adv-x="1000" />

<glyph glyph-name="camera_rear" unicode="&#xe94d;" d="M500 579c45 0 82 39 82 84s-37 82-82 82-84-37-84-82 37-84 84-84z m209 250c45 0 82-39 82-84v-582c0-45-37-84-82-84h-293l125-125-125-125v84h-207v82h207v84h-125c-45 0-82 39-82 84v582c0 45 37 84 82 84h418z m-125-834h207v-82h-207v82z" horiz-adv-x="1000" />

<glyph glyph-name="camera_roll" unicode="&#xe94e;" d="M834 454v84h-84v-84h84z m0-375v84h-84v-84h84z m-168 375v84h-82v-84h82z m0-375v84h-82v-84h82z m-166 375v84h-84v-84h84z m0-375v84h-84v-84h84z m84 541h332v-625h-332c0-45-39-82-84-82h-334c-45 0-82 37-82 82v625c0 45 37 84 82 84h43v41c0 24 18 43 41 43h166c24 0 43-19 43-43v-41h41c45 0 84-39 84-84z" horiz-adv-x="1000" />

<glyph glyph-name="center_focus_strong" unicode="&#xe94f;" d="M791 38v166h84v-166c0-45-39-84-84-84h-166v84h166z m0 666c45 0 84-39 84-84v-166h-84v166h-166v84h166z m-582-84v-166h-84v166c0 45 39 84 84 84h166v-84h-166z m0-416v-166h166v-84h-166c-45 0-84 39-84 84v166h84z m291 291c92 0 166-74 166-166s-74-166-166-166-166 74-166 166 74 166 166 166z" horiz-adv-x="1000" />

<glyph glyph-name="center_focus_weak" unicode="&#xe950;" d="M500 245c45 0 84 39 84 84s-39 84-84 84-84-39-84-84 39-84 84-84z m0 250c92 0 166-74 166-166s-74-166-166-166-166 74-166 166 74 166 166 166z m291-457v166h84v-166c0-45-39-84-84-84h-166v84h166z m0 666c45 0 84-39 84-84v-166h-84v166h-166v84h166z m-582-84v-166h-84v166c0 45 39 84 84 84h166v-84h-166z m0-416v-166h166v-84h-166c-45 0-84 39-84 84v166h84z" horiz-adv-x="1000" />

<glyph glyph-name="colorize" unicode="&#xe951;" d="M289 38l336 336-80 80-336-336z m574 557c16-16 18-41 0-59l-131-131 81-80-59-58-59 58-373-371h-197v197l371 374-58 58 58 59 80-80 131 130c16 16 43 16 59 0z" horiz-adv-x="1000" />

<glyph glyph-name="compare" unicode="&#xe952;" d="M791 704c45 0 84-39 84-84v-582c0-45-39-84-84-84h-207v375l207-250v541h-207v84h207z m-375-625v250l-207-250h207z m0 625v84h84v-918h-84v84h-207c-45 0-84 39-84 84v582c0 45 39 84 84 84h207z" horiz-adv-x="1000" />

<glyph glyph-name="control_point" unicode="&#xe953;" d="M500-5c184 0 334 151 334 334s-150 334-334 334-334-150-334-334 150-334 334-334z m0 750c231 0 416-185 416-416s-185-416-416-416-416 186-416 416 186 416 416 416z m41-207v-168h168v-82h-168v-168h-82v168h-168v82h168v168h82z" horiz-adv-x="1000" />

<glyph glyph-name="control_point_duplicate" unicode="&#xe954;" d="M625 38c160 0 291 131 291 291s-131 291-291 291-291-131-291-291 131-291 291-291z m0 666c207 0 375-168 375-375s-168-375-375-375-375 168-375 375 168 375 375 375z m-541-375c0-117 66-217 166-263v-90c-144 50-250 191-250 353s106 303 250 354v-90c-100-47-166-147-166-264z m582 166v-125h125v-82h-125v-125h-82v125h-125v82h125v125h82z" horiz-adv-x="1000" />

</font>
</defs>
</svg>
